<?xml version="1.0" encoding="utf-8"?>
<!-- Generator: Adobe Illustrator 18.0.0, SVG Export Plug-In . SVG Version: 6.00 Build 0)  -->
<!DOCTYPE svg PUBLIC "-//W3C//DTD SVG 1.1//EN" "http://www.w3.org/Graphics/SVG/1.1/DTD/svg11.dtd">
<svg version="1.1" id="Layer_1" xmlns="http://www.w3.org/2000/svg" xmlns:xlink="http://www.w3.org/1999/xlink" x="0px" y="0px"
	 viewBox="0 0 365.3 267.7" enable-background="new 0 0 365.3 267.7" xml:space="preserve">
<g>
	<path fill="#892929" d="M38.6,26.9l276.6,0c5.8,0,10.5,4.7,10.5,10.5V229c0,5.8-4.7,10.5-10.5,10.5H38.6c-5.8,0-10.5-4.7-10.5-10.5
		V37.5C28.1,31.7,32.8,26.9,38.6,26.9z"/>
	<path fill="#892929" d="M38.5,26.9h276.6c5.8,0,10.5,4.7,10.5,10.5v191.5c0,5.8-4.7,10.5-10.5,10.5H38.5c-5.8,0-10.5-4.7-10.5-10.5
		V37.4C28,31.6,32.7,26.9,38.5,26.9z"/>
	<path fill="#892929" d="M38.5,26.8H315c5.8,0,10.5,4.7,10.5,10.5v191.5c0,5.8-4.7,10.5-10.5,10.5H38.5c-5.8,0-10.5-4.7-10.5-10.5
		V37.3C27.9,31.5,32.7,26.8,38.5,26.8z"/>
	<path fill="#892929" d="M38.4,26.7H315c5.8,0,10.5,4.7,10.5,10.5v191.5c0,5.8-4.7,10.5-10.5,10.5H38.4c-5.8,0-10.5-4.7-10.5-10.5
		V37.3C27.9,31.5,32.6,26.7,38.4,26.7z"/>
	<path fill="#892929" d="M38.3,26.7h276.6c5.8,0,10.5,4.7,10.5,10.5v191.5c0,5.8-4.7,10.5-10.5,10.5H38.3c-5.8,0-10.5-4.7-10.5-10.5
		V37.2C27.8,31.4,32.5,26.7,38.3,26.7z"/>
	<path fill="#892929" d="M38.3,26.6h276.6c5.8,0,10.5,4.7,10.5,10.5v191.5c0,5.8-4.7,10.5-10.5,10.5H38.3c-5.8,0-10.5-4.7-10.5-10.5
		V37.1C27.7,31.3,32.5,26.6,38.3,26.6z"/>
	<path fill="#892929" d="M38.2,26.5h276.6c5.8,0,10.5,4.7,10.5,10.5v191.5c0,5.8-4.7,10.5-10.5,10.5H38.2c-5.8,0-10.5-4.7-10.5-10.5
		V37.1C27.7,31.3,32.4,26.5,38.2,26.5z"/>
	<path fill="#892929" d="M38.1,26.5h276.6c5.8,0,10.5,4.7,10.5,10.5v191.5c0,5.8-4.7,10.5-10.5,10.5H38.1c-5.8,0-10.5-4.7-10.5-10.5
		V37C27.6,31.2,32.3,26.5,38.1,26.5z"/>
	<path fill="#892929" d="M38.1,26.4h276.6c5.8,0,10.5,4.7,10.5,10.5v191.5c0,5.8-4.7,10.5-10.5,10.5H38.1c-5.8,0-10.5-4.7-10.5-10.5
		V36.9C27.5,31.1,32.3,26.4,38.1,26.4z"/>
	<path fill="#892929" d="M38,26.3h276.6c5.8,0,10.5,4.7,10.5,10.5v191.5c0,5.8-4.7,10.5-10.5,10.5H38c-5.8,0-10.5-4.7-10.5-10.5
		V36.9C27.5,31.1,32.2,26.3,38,26.3z"/>
	<path fill="#892929" d="M37.9,26.3h276.6c5.8,0,10.5,4.7,10.5,10.5v191.5c0,5.8-4.7,10.5-10.5,10.5H37.9c-5.8,0-10.5-4.7-10.5-10.5
		V36.8C27.4,31,32.1,26.3,37.9,26.3z"/>
	<path fill="#892929" d="M37.9,26.2h276.6c5.8,0,10.5,4.7,10.5,10.5v191.5c0,5.8-4.7,10.5-10.5,10.5H37.9c-5.8,0-10.5-4.7-10.5-10.5
		V36.7C27.3,30.9,32.1,26.2,37.9,26.2z"/>
	<path fill="#892929" d="M37.8,26.1h276.6c5.8,0,10.5,4.7,10.5,10.5v191.5c0,5.8-4.7,10.5-10.5,10.5H37.8c-5.8,0-10.5-4.7-10.5-10.5
		V36.7C27.3,30.9,32,26.1,37.8,26.1z"/>
	<path fill="#892929" d="M37.7,26.1h276.6c5.8,0,10.5,4.7,10.5,10.5v191.5c0,5.8-4.7,10.5-10.5,10.5H37.7c-5.8,0-10.5-4.7-10.5-10.5
		V36.6C27.2,30.8,31.9,26.1,37.7,26.1z"/>
	<path fill="#892929" d="M37.7,26h276.6c5.8,0,10.5,4.7,10.5,10.5v191.5c0,5.8-4.7,10.5-10.5,10.5H37.7c-5.8,0-10.5-4.7-10.5-10.5
		V36.5C27.1,30.7,31.9,26,37.7,26z"/>
	<path fill="#892929" d="M37.6,25.9h276.6c5.8,0,10.5,4.7,10.5,10.5V228c0,5.8-4.7,10.5-10.5,10.5H37.6c-5.8,0-10.5-4.7-10.5-10.5
		V36.5C27.1,30.7,31.8,25.9,37.6,25.9z"/>
	<path fill="#892929" d="M37.5,25.9h276.6c5.8,0,10.5,4.7,10.5,10.5v191.5c0,5.8-4.7,10.5-10.5,10.5H37.5c-5.8,0-10.5-4.7-10.5-10.5
		V36.4C27,30.6,31.7,25.9,37.5,25.9z"/>
	<path fill="#892929" d="M37.5,25.8H314c5.8,0,10.5,4.7,10.5,10.5v191.5c0,5.8-4.7,10.5-10.5,10.5H37.5c-5.8,0-10.5-4.7-10.5-10.5
		V36.3C26.9,30.5,31.7,25.8,37.5,25.8z"/>
	<path fill="#892929" d="M37.4,25.7H314c5.8,0,10.5,4.7,10.5,10.5v191.5c0,5.8-4.7,10.5-10.5,10.5H37.4c-5.8,0-10.5-4.7-10.5-10.5
		V36.3C26.9,30.5,31.6,25.7,37.4,25.7z"/>
	<path fill="#892929" d="M37.3,25.7h276.6c5.8,0,10.5,4.7,10.5,10.5v191.5c0,5.8-4.7,10.5-10.5,10.5H37.3c-5.8,0-10.5-4.7-10.5-10.5
		V36.2C26.8,30.4,31.5,25.7,37.3,25.7z"/>
	<path fill="#892929" d="M37.3,25.6h276.6c5.8,0,10.5,4.7,10.5,10.5v191.5c0,5.8-4.7,10.5-10.5,10.5H37.3c-5.8,0-10.5-4.7-10.5-10.5
		V36.1C26.7,30.3,31.5,25.6,37.3,25.6z"/>
	<path fill="#892929" d="M37.2,25.5h276.6c5.8,0,10.5,4.7,10.5,10.5v191.5c0,5.8-4.7,10.5-10.5,10.5H37.2c-5.8,0-10.5-4.7-10.5-10.5
		V36.1C26.7,30.3,31.4,25.5,37.2,25.5z"/>
	<path fill="#892929" d="M37.1,25.5h276.6c5.8,0,10.5,4.7,10.5,10.5v191.5c0,5.8-4.7,10.5-10.5,10.5H37.1c-5.8,0-10.5-4.7-10.5-10.5
		V36C26.6,30.2,31.3,25.5,37.1,25.5z"/>
	<path fill="#892929" d="M37.1,25.4h276.6c5.8,0,10.5,4.7,10.5,10.5v191.5c0,5.8-4.7,10.5-10.5,10.5H37.1c-5.8,0-10.5-4.7-10.5-10.5
		V35.9C26.5,30.1,31.3,25.4,37.1,25.4z"/>
	<path fill="#892929" d="M37,25.3h276.6c5.8,0,10.5,4.7,10.5,10.5v191.5c0,5.8-4.7,10.5-10.5,10.5H37c-5.8,0-10.5-4.7-10.5-10.5
		V35.9C26.5,30.1,31.2,25.3,37,25.3z"/>
	<path fill="#892929" d="M36.9,25.3h276.6c5.8,0,10.5,4.7,10.5,10.5v191.5c0,5.8-4.7,10.5-10.5,10.5H36.9c-5.8,0-10.5-4.7-10.5-10.5
		l0-191.5C26.4,30,31.1,25.3,36.9,25.3z"/>
	<path fill="#892929" d="M36.9,25.2h276.6c5.8,0,10.5,4.7,10.5,10.5v191.5c0,5.8-4.7,10.5-10.5,10.5H36.9c-5.8,0-10.5-4.7-10.5-10.5
		V35.7C26.3,29.9,31.1,25.2,36.9,25.2z"/>
	<path fill="#892929" d="M36.8,25.1h276.6c5.8,0,10.5,4.7,10.5,10.5v191.5c0,5.8-4.7,10.5-10.5,10.5H36.8c-5.8,0-10.5-4.7-10.5-10.5
		V35.7C26.3,29.9,31,25.1,36.8,25.1z"/>
	<path fill="#892929" d="M36.7,25.1h276.6c5.8,0,10.5,4.7,10.5,10.5v191.5c0,5.8-4.7,10.5-10.5,10.5H36.7c-5.8,0-10.5-4.7-10.5-10.5
		V35.6C26.2,29.8,30.9,25.1,36.7,25.1z"/>
	<path fill="#892929" d="M36.7,25h276.6c5.8,0,10.5,4.7,10.5,10.5v191.5c0,5.8-4.7,10.5-10.5,10.5H36.7c-5.8,0-10.5-4.7-10.5-10.5
		V35.5C26.1,29.7,30.9,25,36.7,25z"/>
	<path fill="#892929" d="M36.6,24.9h276.6c5.8,0,10.5,4.7,10.5,10.5V227c0,5.8-4.7,10.5-10.5,10.5H36.6c-5.8,0-10.5-4.7-10.5-10.5
		V35.5C26.1,29.7,30.8,24.9,36.6,24.9z"/>
	<path fill="#892929" d="M36.5,24.9h276.6c5.8,0,10.5,4.7,10.5,10.5v191.5c0,5.8-4.7,10.5-10.5,10.5H36.5c-5.8,0-10.5-4.7-10.5-10.5
		V35.4C26,29.6,30.7,24.9,36.5,24.9z"/>
	<path fill="#892929" d="M36.5,24.8H313c5.8,0,10.5,4.7,10.5,10.5v191.5c0,5.8-4.7,10.5-10.5,10.5H36.5c-5.8,0-10.5-4.7-10.5-10.5
		V35.3C25.9,29.5,30.7,24.8,36.5,24.8z"/>
	<path fill="#892929" d="M36.4,24.7H313c5.8,0,10.5,4.7,10.5,10.5v191.5c0,5.8-4.7,10.5-10.5,10.5H36.4c-5.8,0-10.5-4.7-10.5-10.5
		V35.3C25.9,29.5,30.6,24.7,36.4,24.7z"/>
	<path fill="#892929" d="M36.3,24.7h276.6c5.8,0,10.5,4.7,10.5,10.5v191.5c0,5.8-4.7,10.5-10.5,10.5H36.3c-5.8,0-10.5-4.7-10.5-10.5
		V35.2C25.8,29.4,30.5,24.7,36.3,24.7z"/>
	<path fill="#892929" d="M36.3,24.6h276.6c5.8,0,10.5,4.7,10.5,10.5v191.5c0,5.8-4.7,10.5-10.5,10.5H36.3c-5.8,0-10.5-4.7-10.5-10.5
		V35.1C25.7,29.3,30.5,24.6,36.3,24.6z"/>
	<path fill="#892929" d="M36.2,24.5h276.6c5.8,0,10.5,4.7,10.5,10.5v191.5c0,5.8-4.7,10.5-10.5,10.5H36.2c-5.8,0-10.5-4.7-10.5-10.5
		V35.1C25.7,29.3,30.4,24.5,36.2,24.5z"/>
	<path fill="#892929" d="M36.1,24.5h276.6c5.8,0,10.5,4.7,10.5,10.5v191.5c0,5.8-4.7,10.5-10.5,10.5H36.1c-5.8,0-10.5-4.7-10.5-10.5
		V35C25.6,29.2,30.3,24.5,36.1,24.5z"/>
	<path fill="#892929" d="M36.1,24.4h276.6c5.8,0,10.5,4.7,10.5,10.5v191.5c0,5.8-4.7,10.5-10.5,10.5H36.1c-5.8,0-10.5-4.7-10.5-10.5
		l0-191.5C25.5,29.1,30.3,24.4,36.1,24.4z"/>
	<path fill="#892929" d="M36,24.3h276.6c5.8,0,10.5,4.7,10.5,10.5v191.5c0,5.8-4.7,10.5-10.5,10.5H36c-5.8,0-10.5-4.7-10.5-10.5
		V34.9C25.5,29.1,30.2,24.3,36,24.3z"/>
	<path fill="#892929" d="M35.9,24.3h276.6c5.8,0,10.5,4.7,10.5,10.5v191.5c0,5.8-4.7,10.5-10.5,10.5H35.9c-5.8,0-10.5-4.7-10.5-10.5
		V34.8C25.4,29,30.1,24.3,35.9,24.3z"/>
	<path fill="#892929" d="M35.9,24.2h276.6c5.8,0,10.5,4.7,10.5,10.5v191.5c0,5.8-4.7,10.5-10.5,10.5H35.9c-5.8,0-10.5-4.7-10.5-10.5
		V34.7C25.3,28.9,30.1,24.2,35.9,24.2z"/>
	<path fill="#892929" d="M35.8,24.1h276.6c5.8,0,10.5,4.7,10.5,10.5v191.5c0,5.8-4.7,10.5-10.5,10.5H35.8c-5.8,0-10.5-4.7-10.5-10.5
		V34.7C25.3,28.9,30,24.1,35.8,24.1z"/>
	<path fill="#892929" d="M35.7,24.1h276.6c5.8,0,10.5,4.7,10.5,10.5v191.5c0,5.8-4.7,10.5-10.5,10.5H35.7c-5.8,0-10.5-4.7-10.5-10.5
		V34.6C25.2,28.8,29.9,24.1,35.7,24.1z"/>
	<path fill="#892929" d="M35.7,24h276.6c5.8,0,10.5,4.7,10.5,10.5v191.5c0,5.8-4.7,10.5-10.5,10.5H35.7c-5.8,0-10.5-4.7-10.5-10.5
		V34.5C25.1,28.7,29.9,24,35.7,24z"/>
	<path fill="#892929" d="M35.6,23.9h276.6c5.8,0,10.5,4.7,10.5,10.5V226c0,5.8-4.7,10.5-10.5,10.5H35.6c-5.8,0-10.5-4.7-10.5-10.5
		V34.5C25.1,28.7,29.8,23.9,35.6,23.9z"/>
	<path fill="#892929" d="M35.5,23.9h276.6c5.8,0,10.5,4.7,10.5,10.5v191.5c0,5.8-4.7,10.5-10.5,10.5H35.5c-5.8,0-10.5-4.7-10.5-10.5
		V34.4C25,28.6,29.7,23.9,35.5,23.9z"/>
	<path fill="#892929" d="M35.5,23.8H312c5.8,0,10.5,4.7,10.5,10.5v191.5c0,5.8-4.7,10.5-10.5,10.5H35.5c-5.8,0-10.5-4.7-10.5-10.5
		V34.3C24.9,28.5,29.7,23.8,35.5,23.8z"/>
	<path fill="#892929" d="M35.4,23.7H312c5.8,0,10.5,4.7,10.5,10.5v191.5c0,5.8-4.7,10.5-10.5,10.5H35.4c-5.8,0-10.5-4.7-10.5-10.5
		V34.3C24.9,28.5,29.6,23.7,35.4,23.7z"/>
	<path fill="#892929" d="M35.3,23.7h276.6c5.8,0,10.5,4.7,10.5,10.5v191.5c0,5.8-4.7,10.5-10.5,10.5H35.3c-5.8,0-10.5-4.7-10.5-10.5
		V34.2C24.8,28.4,29.5,23.7,35.3,23.7z"/>
	<path fill="#892929" d="M35.3,23.6h276.6c5.8,0,10.5,4.7,10.5,10.5v191.5c0,5.8-4.7,10.5-10.5,10.5H35.3c-5.8,0-10.5-4.7-10.5-10.5
		V34.1C24.7,28.3,29.5,23.6,35.3,23.6z"/>
	<path fill="#892929" d="M35.2,23.5h276.6c5.8,0,10.5,4.7,10.5,10.5v191.5c0,5.8-4.7,10.5-10.5,10.5H35.2c-5.8,0-10.5-4.7-10.5-10.5
		V34.1C24.7,28.3,29.4,23.5,35.2,23.5z"/>
	<path fill="#892929" d="M35.1,23.5h276.6c5.8,0,10.5,4.7,10.5,10.5v191.5c0,5.8-4.7,10.5-10.5,10.5H35.1c-5.8,0-10.5-4.7-10.5-10.5
		V34C24.6,28.2,29.3,23.5,35.1,23.5z"/>
	<path fill="#892929" d="M35.1,23.4h276.6c5.8,0,10.5,4.7,10.5,10.5v191.5c0,5.8-4.7,10.5-10.5,10.5H35.1c-5.8,0-10.5-4.7-10.5-10.5
		V33.9C24.5,28.1,29.3,23.4,35.1,23.4z"/>
	<path fill="#892929" d="M35,23.3h276.6c5.8,0,10.5,4.7,10.5,10.5v191.5c0,5.8-4.7,10.5-10.5,10.5H35c-5.8,0-10.5-4.7-10.5-10.5
		V33.9C24.5,28.1,29.2,23.3,35,23.3z"/>
	<path fill="#892929" d="M34.9,23.3h276.6c5.8,0,10.5,4.7,10.5,10.5v191.5c0,5.8-4.7,10.5-10.5,10.5H34.9c-5.8,0-10.5-4.7-10.5-10.5
		V33.8C24.4,28,29.1,23.3,34.9,23.3z"/>
	<path fill="#892929" d="M34.9,23.2h276.6c5.8,0,10.5,4.7,10.5,10.5v191.5c0,5.8-4.7,10.5-10.5,10.5H34.9c-5.8,0-10.5-4.7-10.5-10.5
		V33.7C24.3,27.9,29.1,23.2,34.9,23.2z"/>
	<path fill="#892929" d="M34.8,23.1h276.6c5.8,0,10.5,4.7,10.5,10.5v191.5c0,5.8-4.7,10.5-10.5,10.5H34.8c-5.8,0-10.5-4.7-10.5-10.5
		V33.7C24.3,27.9,29,23.1,34.8,23.1z"/>
	<path fill="#892929" d="M34.7,23.1h276.6c5.8,0,10.5,4.7,10.5,10.5v191.5c0,5.8-4.7,10.5-10.5,10.5H34.7c-5.8,0-10.5-4.7-10.5-10.5
		V33.6C24.2,27.8,28.9,23.1,34.7,23.1z"/>
	<path fill="#892929" d="M34.7,23h276.6c5.8,0,10.5,4.7,10.5,10.5v191.5c0,5.8-4.7,10.5-10.5,10.5H34.7c-5.8,0-10.5-4.7-10.5-10.5
		V33.5C24.1,27.7,28.9,23,34.7,23z"/>
	<path fill="#892929" d="M34.6,22.9h276.6c5.8,0,10.5,4.7,10.5,10.5V225c0,5.8-4.7,10.5-10.5,10.5H34.6c-5.8,0-10.5-4.7-10.5-10.5
		V33.5C24.1,27.7,28.8,22.9,34.6,22.9z"/>
	<path fill="#892929" d="M34.5,22.9h276.6c5.8,0,10.5,4.7,10.5,10.5v191.5c0,5.8-4.7,10.5-10.5,10.5H34.5c-5.8,0-10.5-4.7-10.5-10.5
		V33.4C24,27.6,28.7,22.9,34.5,22.9z"/>
	<path fill="#892929" d="M34.5,22.8H311c5.8,0,10.5,4.7,10.5,10.5v191.5c0,5.8-4.7,10.5-10.5,10.5H34.5c-5.8,0-10.5-4.7-10.5-10.5
		V33.3C23.9,27.5,28.7,22.8,34.5,22.8z"/>
	<path fill="#892929" d="M34.4,22.7H311c5.8,0,10.5,4.7,10.5,10.5v191.5c0,5.8-4.7,10.5-10.5,10.5H34.4c-5.8,0-10.5-4.7-10.5-10.5
		V33.3C23.9,27.5,28.6,22.7,34.4,22.7z"/>
	<path fill="#892929" d="M34.3,22.7h276.6c5.8,0,10.5,4.7,10.5,10.5v191.5c0,5.8-4.7,10.5-10.5,10.5H34.3c-5.8,0-10.5-4.7-10.5-10.5
		V33.2C23.8,27.4,28.5,22.7,34.3,22.7z"/>
	<path fill="#892929" d="M34.3,22.6h276.6c5.8,0,10.5,4.7,10.5,10.5v191.5c0,5.8-4.7,10.5-10.5,10.5H34.3c-5.8,0-10.5-4.7-10.5-10.5
		V33.1C23.7,27.3,28.5,22.6,34.3,22.6z"/>
	<path fill="#892929" d="M34.2,22.5h276.6c5.8,0,10.5,4.7,10.5,10.5v191.5c0,5.8-4.7,10.5-10.5,10.5H34.2c-5.8,0-10.5-4.7-10.5-10.5
		V33.1C23.7,27.3,28.4,22.5,34.2,22.5z"/>
	<path fill="#892929" d="M34.1,22.5h276.6c5.8,0,10.5,4.7,10.5,10.5v191.5c0,5.8-4.7,10.5-10.5,10.5H34.1c-5.8,0-10.5-4.7-10.5-10.5
		V33C23.6,27.2,28.3,22.5,34.1,22.5z"/>
	<path fill="#892929" d="M34.1,22.4h276.6c5.8,0,10.5,4.7,10.5,10.5v191.5c0,5.8-4.7,10.5-10.5,10.5H34.1c-5.8,0-10.5-4.7-10.5-10.5
		V32.9C23.5,27.1,28.3,22.4,34.1,22.4z"/>
	<path fill="#892929" d="M34,22.3h276.6c5.8,0,10.5,4.7,10.5,10.5v191.5c0,5.8-4.7,10.5-10.5,10.5H34c-5.8,0-10.5-4.7-10.5-10.5
		V32.9C23.5,27.1,28.2,22.3,34,22.3z"/>
	<path fill="#892929" d="M33.9,22.3h276.6c5.8,0,10.5,4.7,10.5,10.5v191.5c0,5.8-4.7,10.5-10.5,10.5H33.9c-5.8,0-10.5-4.7-10.5-10.5
		V32.8C23.4,27,28.1,22.3,33.9,22.3z"/>
	<path fill="#892929" d="M33.9,22.2h276.6c5.8,0,10.5,4.7,10.5,10.5v191.5c0,5.8-4.7,10.5-10.5,10.5H33.9c-5.8,0-10.5-4.7-10.5-10.5
		V32.7C23.3,26.9,28.1,22.2,33.9,22.2z"/>
	<path fill="#892929" d="M33.8,22.1h276.6c5.8,0,10.5,4.7,10.5,10.5v191.5c0,5.8-4.7,10.5-10.5,10.5H33.8c-5.8,0-10.5-4.7-10.5-10.5
		V32.7C23.3,26.9,28,22.1,33.8,22.1z"/>
	<path fill="#892929" d="M33.7,22.1h276.6c5.8,0,10.5,4.7,10.5,10.5v191.5c0,5.8-4.7,10.5-10.5,10.5H33.7c-5.8,0-10.5-4.7-10.5-10.5
		V32.6C23.2,26.8,27.9,22.1,33.7,22.1z"/>
	<path fill="#892929" d="M33.7,22h276.6c5.8,0,10.5,4.7,10.5,10.5v191.5c0,5.8-4.7,10.5-10.5,10.5H33.7c-5.8,0-10.5-4.7-10.5-10.5
		V32.5C23.1,26.7,27.9,22,33.7,22z"/>
	<path fill="#892929" d="M33.6,21.9h276.6c5.8,0,10.5,4.7,10.5,10.5V224c0,5.8-4.7,10.5-10.5,10.5H33.6c-5.8,0-10.5-4.7-10.5-10.5
		V32.5C23.1,26.7,27.8,21.9,33.6,21.9z"/>
	<path fill="#892929" d="M33.5,21.9h276.6c5.8,0,10.5,4.7,10.5,10.5v191.5c0,5.8-4.7,10.5-10.5,10.5H33.5c-5.8,0-10.5-4.7-10.5-10.5
		V32.4C23,26.6,27.7,21.9,33.5,21.9z"/>
	<path fill="#892929" d="M33.5,21.8H310c5.8,0,10.5,4.7,10.5,10.5v191.5c0,5.8-4.7,10.5-10.5,10.5H33.5c-5.8,0-10.5-4.7-10.5-10.5
		V32.3C22.9,26.5,27.7,21.8,33.5,21.8z"/>
	<path fill="#892929" d="M33.4,21.7H310c5.8,0,10.5,4.7,10.5,10.5v191.5c0,5.8-4.7,10.5-10.5,10.5H33.4c-5.8,0-10.5-4.7-10.5-10.5
		V32.3C22.9,26.5,27.6,21.7,33.4,21.7z"/>
	<path fill="#892929" d="M33.3,21.7h276.6c5.8,0,10.5,4.7,10.5,10.5v191.5c0,5.8-4.7,10.5-10.5,10.5H33.3c-5.8,0-10.5-4.7-10.5-10.5
		V32.2C22.8,26.4,27.5,21.7,33.3,21.7z"/>
	<path fill="#892929" d="M33.3,21.6h276.6c5.8,0,10.5,4.7,10.5,10.5v191.5c0,5.8-4.7,10.5-10.5,10.5H33.3c-5.8,0-10.5-4.7-10.5-10.5
		V32.1C22.7,26.3,27.5,21.6,33.3,21.6z"/>
	<path fill="#892929" d="M33.2,21.5h276.6c5.8,0,10.5,4.7,10.5,10.5v191.5c0,5.8-4.7,10.5-10.5,10.5H33.2c-5.8,0-10.5-4.7-10.5-10.5
		V32.1C22.7,26.3,27.4,21.5,33.2,21.5z"/>
	<path fill="#892929" d="M33.1,21.5h276.6c5.8,0,10.5,4.7,10.5,10.5v191.5c0,5.8-4.7,10.5-10.5,10.5H33.1c-5.8,0-10.5-4.7-10.5-10.5
		V32C22.6,26.2,27.3,21.5,33.1,21.5z"/>
	<path fill="#892929" d="M33.1,21.4h276.6c5.8,0,10.5,4.7,10.5,10.5v191.5c0,5.8-4.7,10.5-10.5,10.5H33.1c-5.8,0-10.5-4.7-10.5-10.5
		V31.9C22.5,26.1,27.3,21.4,33.1,21.4z"/>
	<path fill="#892929" d="M33,21.3h276.6c5.8,0,10.5,4.7,10.5,10.5v191.5c0,5.8-4.7,10.5-10.5,10.5H33c-5.8,0-10.5-4.7-10.5-10.5
		V31.9C22.5,26.1,27.2,21.3,33,21.3z"/>
	<path fill="#892929" d="M32.9,21.3h276.6c5.8,0,10.5,4.7,10.5,10.5v191.5c0,5.8-4.7,10.5-10.5,10.5H32.9c-5.8,0-10.5-4.7-10.5-10.5
		V31.8C22.4,26,27.1,21.3,32.9,21.3z"/>
	<path fill="#892929" d="M32.9,21.2h276.6c5.8,0,10.5,4.7,10.5,10.5v191.5c0,5.8-4.7,10.5-10.5,10.5H32.9c-5.8,0-10.5-4.7-10.5-10.5
		V31.7C22.3,25.9,27.1,21.2,32.9,21.2z"/>
	<path fill="#892929" d="M32.8,21.1h276.6c5.8,0,10.5,4.7,10.5,10.5v191.5c0,5.8-4.7,10.5-10.5,10.5H32.8c-5.8,0-10.5-4.7-10.5-10.5
		V31.7C22.3,25.9,27,21.1,32.8,21.1z"/>
	<path fill="#892929" d="M32.7,21.1h276.6c5.8,0,10.5,4.7,10.5,10.5v191.5c0,5.8-4.7,10.5-10.5,10.5H32.7c-5.8,0-10.5-4.7-10.5-10.5
		V31.6C22.2,25.8,26.9,21.1,32.7,21.1z"/>
	<path fill="#892929" d="M32.7,21h276.6c5.8,0,10.5,4.7,10.5,10.5v191.5c0,5.8-4.7,10.5-10.5,10.5H32.7c-5.8,0-10.5-4.7-10.5-10.5
		V31.5C22.1,25.7,26.9,21,32.7,21z"/>
	<path fill="#892929" d="M32.6,20.9h276.6c5.8,0,10.5,4.7,10.5,10.5V223c0,5.8-4.7,10.5-10.5,10.5H32.6c-5.8,0-10.5-4.7-10.5-10.5
		V31.5C22.1,25.7,26.8,20.9,32.6,20.9z"/>
	<path fill="#892929" d="M32.5,20.9h276.6c5.8,0,10.5,4.7,10.5,10.5v191.5c0,5.8-4.7,10.5-10.5,10.5H32.5c-5.8,0-10.5-4.7-10.5-10.5
		V31.4C22,25.6,26.7,20.9,32.5,20.9z"/>
	<path fill="#892929" d="M32.5,20.8H309c5.8,0,10.5,4.7,10.5,10.5v191.5c0,5.8-4.7,10.5-10.5,10.5H32.5c-5.8,0-10.5-4.7-10.5-10.5
		V31.3C21.9,25.5,26.7,20.8,32.5,20.8z"/>
	<path fill="#892929" d="M32.4,20.7H309c5.8,0,10.5,4.7,10.5,10.5v191.5c0,5.8-4.7,10.5-10.5,10.5H32.4c-5.8,0-10.5-4.7-10.5-10.5
		V31.3C21.9,25.5,26.6,20.7,32.4,20.7z"/>
	<path fill="#892929" d="M32.3,20.7h276.6c5.8,0,10.5,4.7,10.5,10.5v191.5c0,5.8-4.7,10.5-10.5,10.5H32.3c-5.8,0-10.5-4.7-10.5-10.5
		V31.2C21.8,25.4,26.5,20.7,32.3,20.7z"/>
	<path fill="#892929" d="M32.3,20.6h276.6c5.8,0,10.5,4.7,10.5,10.5v191.5c0,5.8-4.7,10.5-10.5,10.5H32.3c-5.8,0-10.5-4.7-10.5-10.5
		V31.1C21.7,25.3,26.5,20.6,32.3,20.6z"/>
	<path fill="#892929" d="M32.2,20.5h276.6c5.8,0,10.5,4.7,10.5,10.5v191.5c0,5.8-4.7,10.5-10.5,10.5H32.2c-5.8,0-10.5-4.7-10.5-10.5
		V31.1C21.7,25.3,26.4,20.5,32.2,20.5z"/>
	<path fill="#892929" d="M32.1,20.5h276.6c5.8,0,10.5,4.7,10.5,10.5v191.5c0,5.8-4.7,10.5-10.5,10.5H32.1c-5.8,0-10.5-4.7-10.5-10.5
		V31C21.6,25.2,26.3,20.5,32.1,20.5z"/>
	<path fill="#892929" d="M32.1,20.4h276.6c5.8,0,10.5,4.7,10.5,10.5v191.5c0,5.8-4.7,10.5-10.5,10.5H32.1c-5.8,0-10.5-4.7-10.5-10.5
		V30.9C21.5,25.1,26.3,20.4,32.1,20.4z"/>
	<path fill="#892929" d="M32,20.3h276.6c5.8,0,10.5,4.7,10.5,10.5v191.5c0,5.8-4.7,10.5-10.5,10.5H32c-5.8,0-10.5-4.7-10.5-10.5
		V30.9C21.5,25.1,26.2,20.3,32,20.3z"/>
	<path fill="#892929" d="M31.9,20.3h276.6c5.8,0,10.5,4.7,10.5,10.5v191.5c0,5.8-4.7,10.5-10.5,10.5H31.9c-5.8,0-10.5-4.7-10.5-10.5
		V30.8C21.4,25,26.1,20.3,31.9,20.3z"/>
	<path fill="#892929" d="M31.9,20.2h276.6c5.8,0,10.5,4.7,10.5,10.5v191.5c0,5.8-4.7,10.5-10.5,10.5H31.9c-5.8,0-10.5-4.7-10.5-10.5
		V30.7C21.3,24.9,26.1,20.2,31.9,20.2z"/>
	<path fill="#892929" d="M31.8,20.1h276.6c5.8,0,10.5,4.7,10.5,10.5v191.5c0,5.8-4.7,10.5-10.5,10.5H31.8c-5.8,0-10.5-4.7-10.5-10.5
		V30.7C21.3,24.9,26,20.1,31.8,20.1z"/>
	<path fill="#892929" d="M31.7,20.1h276.6c5.8,0,10.5,4.7,10.5,10.5v191.5c0,5.8-4.7,10.5-10.5,10.5H31.7c-5.8,0-10.5-4.7-10.5-10.5
		V30.6C21.2,24.8,25.9,20.1,31.7,20.1z"/>
	<path fill="#892929" d="M31.7,20h276.6c5.8,0,10.5,4.7,10.5,10.5v191.5c0,5.8-4.7,10.5-10.5,10.5H31.7c-5.8,0-10.5-4.7-10.5-10.5
		V30.5C21.1,24.7,25.9,20,31.7,20z"/>
	<path fill="#892929" d="M31.6,19.9h276.6c5.8,0,10.5,4.7,10.5,10.5V222c0,5.8-4.7,10.5-10.5,10.5H31.6c-5.8,0-10.5-4.7-10.5-10.5
		V30.5C21.1,24.7,25.8,19.9,31.6,19.9z"/>
	<path fill="#892929" d="M31.5,19.9h276.6c5.8,0,10.5,4.7,10.5,10.5v191.5c0,5.8-4.7,10.5-10.5,10.5H31.5c-5.8,0-10.5-4.7-10.5-10.5
		V30.4C21,24.6,25.7,19.9,31.5,19.9z"/>
	<path fill="#892929" d="M31.5,19.8H308c5.8,0,10.5,4.7,10.5,10.5v191.5c0,5.8-4.7,10.5-10.5,10.5H31.5c-5.8,0-10.5-4.7-10.5-10.5
		V30.3C20.9,24.5,25.7,19.8,31.5,19.8z"/>
	<path fill="#892929" d="M31.4,19.7H308c5.8,0,10.5,4.7,10.5,10.5v191.5c0,5.8-4.7,10.5-10.5,10.5H31.4c-5.8,0-10.5-4.7-10.5-10.5
		V30.3C20.9,24.5,25.6,19.7,31.4,19.7z"/>
	<path fill="#892929" d="M31.3,19.7h276.6c5.8,0,10.5,4.7,10.5,10.5v191.5c0,5.8-4.7,10.5-10.5,10.5H31.3c-5.8,0-10.5-4.7-10.5-10.5
		V30.2C20.8,24.4,25.5,19.7,31.3,19.7z"/>
	<path fill="#892929" d="M31.3,19.6h276.6c5.8,0,10.5,4.7,10.5,10.5v191.5c0,5.8-4.7,10.5-10.5,10.5H31.3c-5.8,0-10.5-4.7-10.5-10.5
		V30.1C20.7,24.3,25.5,19.6,31.3,19.6z"/>
	<path fill="#892929" d="M31.2,19.5h276.6c5.8,0,10.5,4.7,10.5,10.5v191.5c0,5.8-4.7,10.5-10.5,10.5H31.2c-5.8,0-10.5-4.7-10.5-10.5
		V30.1C20.7,24.3,25.4,19.5,31.2,19.5z"/>
	<path fill="#892929" d="M31.1,19.5h276.6c5.8,0,10.5,4.7,10.5,10.5v191.5c0,5.8-4.7,10.5-10.5,10.5H31.1c-5.8,0-10.5-4.7-10.5-10.5
		V30C20.6,24.2,25.3,19.5,31.1,19.5z"/>
	<path fill="#892929" d="M31.1,19.4h276.6c5.8,0,10.5,4.7,10.5,10.5v191.5c0,5.8-4.7,10.5-10.5,10.5H31.1c-5.8,0-10.5-4.7-10.5-10.5
		V29.9C20.5,24.1,25.3,19.4,31.1,19.4z"/>
	<path fill="#892929" d="M31,19.3h276.6c5.8,0,10.5,4.7,10.5,10.5v191.5c0,5.8-4.7,10.5-10.5,10.5H31c-5.8,0-10.5-4.7-10.5-10.5
		V29.9C20.5,24.1,25.2,19.3,31,19.3z"/>
	<path fill="#892929" d="M30.9,19.3h276.6c5.8,0,10.5,4.7,10.5,10.5v191.5c0,5.8-4.7,10.5-10.5,10.5H30.9c-5.8,0-10.5-4.7-10.5-10.5
		V29.8C20.4,24,25.1,19.3,30.9,19.3z"/>
	<path fill="#892929" d="M30.9,19.2h276.6c5.8,0,10.5,4.7,10.5,10.5v191.5c0,5.8-4.7,10.5-10.5,10.5H30.9c-5.8,0-10.5-4.7-10.5-10.5
		V29.7C20.3,23.9,25.1,19.2,30.9,19.2z"/>
	<path fill="#892929" d="M30.8,19.1h276.6c5.8,0,10.5,4.7,10.5,10.5v191.5c0,5.8-4.7,10.5-10.5,10.5H30.8c-5.8,0-10.5-4.7-10.5-10.5
		V29.7C20.3,23.9,25,19.1,30.8,19.1z"/>
	<path fill="#892929" d="M30.7,19.1h276.6c5.8,0,10.5,4.7,10.5,10.5v191.5c0,5.8-4.7,10.5-10.5,10.5H30.7c-5.8,0-10.5-4.7-10.5-10.5
		V29.6C20.2,23.8,24.9,19.1,30.7,19.1z"/>
	<path fill="#892929" d="M30.7,19h276.6c5.8,0,10.5,4.7,10.5,10.5v191.5c0,5.8-4.7,10.5-10.5,10.5H30.7c-5.8,0-10.5-4.7-10.5-10.5
		V29.5C20.1,23.7,24.9,19,30.7,19z"/>
	<path fill="#892929" d="M30.6,18.9h276.6c5.8,0,10.5,4.7,10.5,10.5V221c0,5.8-4.7,10.5-10.5,10.5H30.6c-5.8,0-10.5-4.7-10.5-10.5
		V29.5C20.1,23.7,24.8,18.9,30.6,18.9z"/>
	<path fill="#892929" d="M30.5,18.9h276.6c5.8,0,10.5,4.7,10.5,10.5v191.5c0,5.8-4.7,10.5-10.5,10.5H30.5c-5.8,0-10.5-4.7-10.5-10.5
		V29.4C20,23.6,24.7,18.9,30.5,18.9z"/>
	<path fill="#892929" d="M30.5,18.8H307c5.8,0,10.5,4.7,10.5,10.5v191.5c0,5.8-4.7,10.5-10.5,10.5H30.5c-5.8,0-10.5-4.7-10.5-10.5
		V29.3C19.9,23.5,24.7,18.8,30.5,18.8z"/>
	<path fill="#892929" d="M30.4,18.7H307c5.8,0,10.5,4.7,10.5,10.5v191.5c0,5.8-4.7,10.5-10.5,10.5H30.4c-5.8,0-10.5-4.7-10.5-10.5
		V29.3C19.9,23.5,24.6,18.7,30.4,18.7z"/>
	<path fill="#892929" d="M30.3,18.7h276.6c5.8,0,10.5,4.7,10.5,10.5v191.5c0,5.8-4.7,10.5-10.5,10.5H30.3c-5.8,0-10.5-4.7-10.5-10.5
		V29.2C19.8,23.4,24.5,18.7,30.3,18.7z"/>
	<path fill="#892929" d="M30.3,18.6h276.6c5.8,0,10.5,4.7,10.5,10.5v191.5c0,5.8-4.7,10.5-10.5,10.5H30.3c-5.8,0-10.5-4.7-10.5-10.5
		V29.1C19.7,23.3,24.5,18.6,30.3,18.6z"/>
	<path fill="#892929" d="M30.2,18.5h276.6c5.8,0,10.5,4.7,10.5,10.5v191.5c0,5.8-4.7,10.5-10.5,10.5H30.2c-5.8,0-10.5-4.7-10.5-10.5
		V29.1C19.7,23.3,24.4,18.5,30.2,18.5z"/>
	<path fill="#892929" d="M30.1,18.5h276.6c5.8,0,10.5,4.7,10.5,10.5v191.5c0,5.8-4.7,10.5-10.5,10.5H30.1c-5.8,0-10.5-4.7-10.5-10.5
		V29C19.6,23.2,24.3,18.5,30.1,18.5z"/>
	<path fill="#892929" d="M30.1,18.4h276.6c5.8,0,10.5,4.7,10.5,10.5v191.5c0,5.8-4.7,10.5-10.5,10.5H30.1c-5.8,0-10.5-4.7-10.5-10.5
		V28.9C19.5,23.1,24.3,18.4,30.1,18.4z"/>
	<path fill="#892929" d="M30,18.3h276.6c5.8,0,10.5,4.7,10.5,10.5v191.5c0,5.8-4.7,10.5-10.5,10.5H30c-5.8,0-10.5-4.7-10.5-10.5
		V28.9C19.5,23.1,24.2,18.3,30,18.3z"/>
	<path fill="#892929" d="M29.9,18.3h276.6c5.8,0,10.5,4.7,10.5,10.5v191.5c0,5.8-4.7,10.5-10.5,10.5H29.9c-5.8,0-10.5-4.7-10.5-10.5
		V28.8C19.4,23,24.1,18.3,29.9,18.3z"/>
	<path fill="#892929" d="M29.9,18.2h276.6c5.8,0,10.5,4.7,10.5,10.5v191.5c0,5.8-4.7,10.5-10.5,10.5H29.9c-5.8,0-10.5-4.7-10.5-10.5
		V28.7C19.3,22.9,24.1,18.2,29.9,18.2z"/>
	<path fill="#892929" d="M29.8,18.1h276.6c5.8,0,10.5,4.7,10.5,10.5v191.5c0,5.8-4.7,10.5-10.5,10.5H29.8c-5.8,0-10.5-4.7-10.5-10.5
		V28.7C19.3,22.9,24,18.1,29.8,18.1z"/>
	<path fill="#892929" d="M29.7,18.1h276.6c5.8,0,10.5,4.7,10.5,10.5v191.5c0,5.8-4.7,10.5-10.5,10.5H29.7c-5.8,0-10.5-4.7-10.5-10.5
		V28.6C19.2,22.8,23.9,18.1,29.7,18.1z"/>
	<path fill="#892929" d="M29.7,18h276.6c5.8,0,10.5,4.7,10.5,10.5v191.5c0,5.8-4.7,10.5-10.5,10.5H29.7c-5.8,0-10.5-4.7-10.5-10.5
		V28.5C19.1,22.7,23.9,18,29.7,18z"/>
	<path fill="#892929" d="M29.6,17.9h276.6c5.8,0,10.5,4.7,10.5,10.5V220c0,5.8-4.7,10.5-10.5,10.5H29.6c-5.8,0-10.5-4.7-10.5-10.5
		V28.5C19.1,22.7,23.8,17.9,29.6,17.9z"/>
	<path fill="#892929" d="M29.5,17.9h276.6c5.8,0,10.5,4.7,10.5,10.5v191.5c0,5.8-4.7,10.5-10.5,10.5H29.5c-5.8,0-10.5-4.7-10.5-10.5
		V28.4C19,22.6,23.7,17.9,29.5,17.9z"/>
	<path fill="#892929" d="M29.5,17.8H306c5.8,0,10.5,4.7,10.5,10.5v191.5c0,5.8-4.7,10.5-10.5,10.5H29.5c-5.8,0-10.5-4.7-10.5-10.5
		V28.3C18.9,22.5,23.7,17.8,29.5,17.8z"/>
	<path fill="#892929" d="M29.4,17.7H306c5.8,0,10.5,4.7,10.5,10.5v191.5c0,5.8-4.7,10.5-10.5,10.5H29.4c-5.8,0-10.5-4.7-10.5-10.5
		V28.3C18.9,22.5,23.6,17.7,29.4,17.7z"/>
	<path fill="#892929" d="M29.3,17.7h276.6c5.8,0,10.5,4.7,10.5,10.5v191.5c0,5.8-4.7,10.5-10.5,10.5H29.3c-5.8,0-10.5-4.7-10.5-10.5
		V28.2C18.8,22.4,23.5,17.7,29.3,17.7z"/>
	<path fill="#892929" d="M29.3,17.6h276.6c5.8,0,10.5,4.7,10.5,10.5v191.5c0,5.8-4.7,10.5-10.5,10.5H29.3c-5.8,0-10.5-4.7-10.5-10.5
		V28.1C18.7,22.3,23.5,17.6,29.3,17.6z"/>
	<path fill="#892929" d="M29.2,17.5h276.6c5.8,0,10.5,4.7,10.5,10.5v191.5c0,5.8-4.7,10.5-10.5,10.5H29.2c-5.8,0-10.5-4.7-10.5-10.5
		V28.1C18.7,22.3,23.4,17.5,29.2,17.5z"/>
	<path fill="#892929" d="M29.2,17.5h276.6c5.8,0,10.5,4.7,10.5,10.5v191.5c0,5.8-4.7,10.5-10.5,10.5H29.2c-5.8,0-10.5-4.7-10.5-10.5
		V28C18.6,22.2,23.3,17.5,29.2,17.5z"/>
	<path fill="#892929" d="M29.1,17.4h276.6c5.8,0,10.5,4.7,10.5,10.5v191.5c0,5.8-4.7,10.5-10.5,10.5H29.1c-5.8,0-10.5-4.7-10.5-10.5
		V27.9C18.5,22.1,23.3,17.4,29.1,17.4z"/>
	<path fill="#892929" d="M29,17.3h276.6c5.8,0,10.5,4.7,10.5,10.5v191.5c0,5.8-4.7,10.5-10.5,10.5H29c-5.8,0-10.5-4.7-10.5-10.5
		V27.9C18.5,22.1,23.2,17.3,29,17.3z"/>
	<path fill="#892929" d="M29,17.3h276.6c5.8,0,10.5,4.7,10.5,10.5v191.5c0,5.8-4.7,10.5-10.5,10.5H29c-5.8,0-10.5-4.7-10.5-10.5
		V27.8C18.4,22,23.1,17.3,29,17.3z"/>
	<path fill="#892929" d="M28.9,17.2h276.6c5.8,0,10.5,4.7,10.5,10.5v191.5c0,5.8-4.7,10.5-10.5,10.5H28.9c-5.8,0-10.5-4.7-10.5-10.5
		V27.7C18.3,21.9,23.1,17.2,28.9,17.2z"/>
	<path fill="#892929" d="M28.8,17.1h276.6c5.8,0,10.5,4.7,10.5,10.5v191.5c0,5.8-4.7,10.5-10.5,10.5H28.8c-5.8,0-10.5-4.7-10.5-10.5
		V27.7C18.3,21.9,23,17.1,28.8,17.1z"/>
	<path fill="#892929" d="M28.8,17.1h276.6c5.8,0,10.5,4.7,10.5,10.5v191.5c0,5.8-4.7,10.5-10.5,10.5H28.8c-5.8,0-10.5-4.7-10.5-10.5
		V27.6C18.2,21.8,22.9,17.1,28.8,17.1z"/>
	<path fill="#892929" d="M28.7,17h276.6c5.8,0,10.5,4.7,10.5,10.5v191.5c0,5.8-4.7,10.5-10.5,10.5H28.7c-5.8,0-10.5-4.7-10.5-10.5
		V27.5C18.1,21.7,22.9,17,28.7,17z"/>
	<path fill="#892929" d="M28.6,16.9h276.6c5.8,0,10.5,4.7,10.5,10.5V219c0,5.8-4.7,10.5-10.5,10.5H28.6c-5.8,0-10.5-4.7-10.5-10.5
		V27.5C18.1,21.7,22.8,16.9,28.6,16.9z"/>
	<path fill="#892929" d="M28.6,16.9h276.6c5.8,0,10.5,4.7,10.5,10.5v191.5c0,5.8-4.7,10.5-10.5,10.5H28.6c-5.8,0-10.5-4.7-10.5-10.5
		V27.4C18,21.6,22.7,16.9,28.6,16.9z"/>
	<path fill="#892929" d="M28.5,16.8H305c5.8,0,10.5,4.7,10.5,10.5v191.5c0,5.8-4.7,10.5-10.5,10.5H28.5c-5.8,0-10.5-4.7-10.5-10.5
		V27.3C17.9,21.5,22.7,16.8,28.5,16.8z"/>
	<path fill="#892929" d="M28.4,16.7H305c5.8,0,10.5,4.7,10.5,10.5v191.5c0,5.8-4.7,10.5-10.5,10.5H28.4c-5.8,0-10.5-4.7-10.5-10.5
		V27.3C17.9,21.5,22.6,16.7,28.4,16.7z"/>
	<path fill="#892929" d="M28.4,16.7h276.6c5.8,0,10.5,4.7,10.5,10.5v191.5c0,5.8-4.7,10.5-10.5,10.5H28.4c-5.8,0-10.5-4.7-10.5-10.5
		V27.2C17.8,21.4,22.5,16.7,28.4,16.7z"/>
	<path fill="#892929" d="M28.3,16.6h276.6c5.8,0,10.5,4.7,10.5,10.5v191.5c0,5.8-4.7,10.5-10.5,10.5H28.3c-5.8,0-10.5-4.7-10.5-10.5
		V27.1C17.7,21.3,22.5,16.6,28.3,16.6z"/>
	<path fill="#892929" d="M28.2,16.5h276.6c5.8,0,10.5,4.7,10.5,10.5v191.5c0,5.8-4.7,10.5-10.5,10.5H28.2c-5.8,0-10.5-4.7-10.5-10.5
		V27.1C17.7,21.3,22.4,16.5,28.2,16.5z"/>
	<path fill="#892929" d="M28.2,16.5h276.6c5.8,0,10.5,4.7,10.5,10.5v191.5c0,5.8-4.7,10.5-10.5,10.5H28.2c-5.8,0-10.5-4.7-10.5-10.5
		V27C17.6,21.2,22.3,16.5,28.2,16.5z"/>
	<path fill="#892929" d="M28.1,16.4h276.6c5.8,0,10.5,4.7,10.5,10.5v191.5c0,5.8-4.7,10.5-10.5,10.5H28.1c-5.8,0-10.5-4.7-10.5-10.5
		V26.9C17.5,21.1,22.3,16.4,28.1,16.4z"/>
	<path fill="#892929" d="M28,16.3h276.6c5.8,0,10.5,4.7,10.5,10.5v191.5c0,5.8-4.7,10.5-10.5,10.5H28c-5.8,0-10.5-4.7-10.5-10.5
		V26.9C17.5,21.1,22.2,16.3,28,16.3z"/>
	<path fill="#892929" d="M28,16.3h276.6c5.8,0,10.5,4.7,10.5,10.5v191.5c0,5.8-4.7,10.5-10.5,10.5H28c-5.8,0-10.5-4.7-10.5-10.5
		V26.8C17.4,21,22.1,16.3,28,16.3z"/>
	<path fill="#892929" d="M27.9,16.2h276.6c5.8,0,10.5,4.7,10.5,10.5v191.5c0,5.8-4.7,10.5-10.5,10.5H27.9c-5.8,0-10.5-4.7-10.5-10.5
		V26.8C17.3,20.9,22.1,16.2,27.9,16.2z"/>
	<path fill="#892929" d="M27.8,16.1h276.6c5.8,0,10.5,4.7,10.5,10.5v191.5c0,5.8-4.7,10.5-10.5,10.5H27.8c-5.8,0-10.5-4.7-10.5-10.5
		V26.7C17.3,20.9,22,16.1,27.8,16.1z"/>
	<path fill="#892929" d="M27.8,16.1h276.6c5.8,0,10.5,4.7,10.5,10.5v191.5c0,5.8-4.7,10.5-10.5,10.5H27.8c-5.8,0-10.5-4.7-10.5-10.5
		V26.6C17.2,20.8,21.9,16.1,27.8,16.1z"/>
	<path fill="#892929" d="M27.7,16h276.6c5.8,0,10.5,4.7,10.5,10.5v191.5c0,5.8-4.7,10.5-10.5,10.5H27.7c-5.8,0-10.5-4.7-10.5-10.5
		V26.6C17.1,20.7,21.9,16,27.7,16z"/>
	<path fill="#892929" d="M27.6,15.9h276.6c5.8,0,10.5,4.7,10.5,10.5V218c0,5.8-4.7,10.5-10.5,10.5H27.6c-5.8,0-10.5-4.7-10.5-10.5
		V26.5C17.1,20.7,21.8,15.9,27.6,15.9z"/>
	<path fill="#892929" d="M27.6,15.9h276.6c5.8,0,10.5,4.7,10.5,10.5v191.5c0,5.8-4.7,10.5-10.5,10.5H27.6c-5.8,0-10.5-4.7-10.5-10.5
		V26.4C17,20.6,21.7,15.9,27.6,15.9z"/>
	<path fill="#892929" d="M27.5,15.8H304c5.8,0,10.5,4.7,10.5,10.5v191.5c0,5.8-4.7,10.5-10.5,10.5H27.5c-5.8,0-10.5-4.7-10.5-10.5
		V26.4C16.9,20.5,21.7,15.8,27.5,15.8z"/>
	<path fill="#892929" d="M27.4,15.7H304c5.8,0,10.5,4.7,10.5,10.5v191.5c0,5.8-4.7,10.5-10.5,10.5H27.4c-5.8,0-10.5-4.7-10.5-10.5
		V26.3C16.9,20.5,21.6,15.7,27.4,15.7z"/>
	<path fill="#892929" d="M27.4,15.7h276.6c5.8,0,10.5,4.7,10.5,10.5v191.5c0,5.8-4.7,10.5-10.5,10.5H27.4c-5.8,0-10.5-4.7-10.5-10.5
		V26.2C16.8,20.4,21.5,15.7,27.4,15.7z"/>
	<path fill="#892929" d="M27.3,15.6h276.6c5.8,0,10.5,4.7,10.5,10.5v191.5c0,5.8-4.7,10.5-10.5,10.5H27.3c-5.8,0-10.5-4.7-10.5-10.5
		V26.2C16.7,20.3,21.5,15.6,27.3,15.6z"/>
	<path fill="#892929" d="M27.2,15.5h276.6c5.8,0,10.5,4.7,10.5,10.5v191.5c0,5.8-4.7,10.5-10.5,10.5H27.2c-5.8,0-10.5-4.7-10.5-10.5
		V26.1C16.7,20.3,21.4,15.5,27.2,15.5z"/>
	<path fill="#892929" d="M27.2,15.5h276.6c5.8,0,10.5,4.7,10.5,10.5v191.5c0,5.8-4.7,10.5-10.5,10.5H27.2c-5.8,0-10.5-4.7-10.5-10.5
		V26C16.6,20.2,21.3,15.5,27.2,15.5z"/>
	<path fill="#892929" d="M27.1,15.4h276.6c5.8,0,10.5,4.7,10.5,10.5v191.5c0,5.8-4.7,10.5-10.5,10.5H27.1c-5.8,0-10.5-4.7-10.5-10.5
		V26C16.5,20.1,21.3,15.4,27.1,15.4z"/>
	<path fill="#892929" d="M27,15.3h276.6c5.8,0,10.5,4.7,10.5,10.5v191.5c0,5.8-4.7,10.5-10.5,10.5H27c-5.8,0-10.5-4.7-10.5-10.5
		V25.9C16.5,20.1,21.2,15.3,27,15.3z"/>
	<path fill="#892929" d="M27,15.3h276.6c5.8,0,10.5,4.7,10.5,10.5v191.5c0,5.8-4.7,10.5-10.5,10.5H27c-5.8,0-10.5-4.7-10.5-10.5
		V25.8C16.4,20,21.1,15.3,27,15.3z"/>
	<path fill="#892929" d="M26.9,15.2h276.6c5.8,0,10.5,4.7,10.5,10.5v191.5c0,5.8-4.7,10.5-10.5,10.5H26.9c-5.8,0-10.5-4.7-10.5-10.5
		V25.8C16.3,19.9,21.1,15.2,26.9,15.2z"/>
	<path fill="#892929" d="M26.8,15.1h276.6c5.8,0,10.5,4.7,10.5,10.5v191.5c0,5.8-4.7,10.5-10.5,10.5H26.8c-5.8,0-10.5-4.7-10.5-10.5
		V25.7C16.3,19.9,21,15.1,26.8,15.1z"/>
	<path fill="#892929" d="M26.8,15.1h276.6c5.8,0,10.5,4.7,10.5,10.5v191.5c0,5.8-4.7,10.5-10.5,10.5H26.8c-5.8,0-10.5-4.7-10.5-10.5
		V25.6C16.2,19.8,20.9,15.1,26.8,15.1z"/>
	<path fill="#892929" d="M26.7,15h276.6c5.8,0,10.5,4.7,10.5,10.5v191.5c0,5.8-4.7,10.5-10.5,10.5H26.7c-5.8,0-10.5-4.7-10.5-10.5
		V25.6C16.1,19.7,20.9,15,26.7,15z"/>
	<path fill="#892929" d="M26.6,14.9h276.6c5.8,0,10.5,4.7,10.5,10.5V217c0,5.8-4.7,10.5-10.5,10.5H26.6c-5.8,0-10.5-4.7-10.5-10.5
		V25.5C16.1,19.7,20.8,14.9,26.6,14.9z"/>
	<path fill="#892929" d="M26.6,14.9h276.6c5.8,0,10.5,4.7,10.5,10.5v191.5c0,5.8-4.7,10.5-10.5,10.5H26.6c-5.8,0-10.5-4.7-10.5-10.5
		V25.4C16,19.6,20.7,14.9,26.6,14.9z"/>
	<path fill="#892929" d="M26.5,14.8H303c5.8,0,10.5,4.7,10.5,10.5v191.5c0,5.8-4.7,10.5-10.5,10.5H26.5c-5.8,0-10.5-4.7-10.5-10.5
		V25.4C15.9,19.5,20.7,14.8,26.5,14.8z"/>
	<path fill="#892929" d="M26.4,14.7H303c5.8,0,10.5,4.7,10.5,10.5v191.5c0,5.8-4.7,10.5-10.5,10.5H26.4c-5.8,0-10.5-4.7-10.5-10.5
		V25.3C15.9,19.5,20.6,14.7,26.4,14.7z"/>
	<path fill="#892929" d="M26.4,14.7h276.6c5.8,0,10.5,4.7,10.5,10.5v191.5c0,5.8-4.7,10.5-10.5,10.5H26.4c-5.8,0-10.5-4.7-10.5-10.5
		V25.2C15.8,19.4,20.5,14.7,26.4,14.7z"/>
	<path fill="#892929" d="M26.3,14.6h276.6c5.8,0,10.5,4.7,10.5,10.5v191.5c0,5.8-4.7,10.5-10.5,10.5H26.3c-5.8,0-10.5-4.7-10.5-10.5
		V25.2C15.7,19.3,20.5,14.6,26.3,14.6z"/>
	<path fill="#892929" d="M26.2,14.5h276.6c5.8,0,10.5,4.7,10.5,10.5v191.5c0,5.8-4.7,10.5-10.5,10.5H26.2c-5.8,0-10.5-4.7-10.5-10.5
		V25.1C15.7,19.3,20.4,14.5,26.2,14.5z"/>
	<path fill="#892929" d="M26.2,14.5h276.6c5.8,0,10.5,4.7,10.5,10.5v191.5c0,5.8-4.7,10.5-10.5,10.5H26.2c-5.8,0-10.5-4.7-10.5-10.5
		V25C15.6,19.2,20.3,14.5,26.2,14.5z"/>
	<path fill="#892929" d="M26.1,14.4h276.6c5.8,0,10.5,4.7,10.5,10.5v191.5c0,5.8-4.7,10.5-10.5,10.5H26.1c-5.8,0-10.5-4.7-10.5-10.5
		V25C15.5,19.1,20.3,14.4,26.1,14.4z"/>
	<path fill="#892929" d="M26,14.3h276.6c5.8,0,10.5,4.7,10.5,10.5v191.5c0,5.8-4.7,10.5-10.5,10.5H26c-5.8,0-10.5-4.7-10.5-10.5
		V24.9C15.5,19.1,20.2,14.3,26,14.3z"/>
	<path fill="#892929" d="M26,14.3h276.6c5.8,0,10.5,4.7,10.5,10.5v191.5c0,5.8-4.7,10.5-10.5,10.5H26c-5.8,0-10.5-4.7-10.5-10.5
		V24.8C15.4,19,20.1,14.3,26,14.3z"/>
	<path fill="#892929" d="M25.9,14.2h276.6c5.8,0,10.5,4.7,10.5,10.5v191.5c0,5.8-4.7,10.5-10.5,10.5H25.9c-5.8,0-10.5-4.7-10.5-10.5
		V24.8C15.3,18.9,20.1,14.2,25.9,14.2z"/>
	<path fill="#892929" d="M25.8,14.1h276.6c5.8,0,10.5,4.7,10.5,10.5v191.5c0,5.8-4.7,10.5-10.5,10.5H25.8c-5.8,0-10.5-4.7-10.5-10.5
		V24.7C15.3,18.9,20,14.1,25.8,14.1z"/>
	<path fill="#892929" d="M25.8,14.1h276.6c5.8,0,10.5,4.7,10.5,10.5v191.5c0,5.8-4.7,10.5-10.5,10.5H25.8c-5.8,0-10.5-4.7-10.5-10.5
		V24.6C15.2,18.8,19.9,14.1,25.8,14.1z"/>
	<path fill="#892929" d="M25.7,14h276.6c5.8,0,10.5,4.7,10.5,10.5v191.5c0,5.8-4.7,10.5-10.5,10.5H25.7c-5.8,0-10.5-4.7-10.5-10.5
		V24.6C15.1,18.7,19.9,14,25.7,14z"/>
	<path fill="#892929" d="M25.6,13.9h276.6c5.8,0,10.5,4.7,10.5,10.5V216c0,5.8-4.7,10.5-10.5,10.5H25.6c-5.8,0-10.5-4.7-10.5-10.5
		V24.5C15.1,18.7,19.8,13.9,25.6,13.9z"/>
	<path fill="#892929" d="M25.6,13.9h276.6c5.8,0,10.5,4.7,10.5,10.5v191.5c0,5.8-4.7,10.5-10.5,10.5H25.6c-5.8,0-10.5-4.7-10.5-10.5
		V24.4C15,18.6,19.7,13.9,25.6,13.9z"/>
	<path fill="#892929" d="M25.5,13.8h276.6c5.8,0,10.5,4.7,10.5,10.5v191.5c0,5.8-4.7,10.5-10.5,10.5H25.5c-5.8,0-10.5-4.7-10.5-10.5
		V24.4C14.9,18.5,19.7,13.8,25.5,13.8z"/>
	<path fill="#892929" d="M25.4,13.7H302c5.8,0,10.5,4.7,10.5,10.5v191.5c0,5.8-4.7,10.5-10.5,10.5H25.4c-5.8,0-10.5-4.7-10.5-10.5
		V24.3C14.9,18.5,19.6,13.7,25.4,13.7z"/>
</g>
<g opacity="0.21">
	<path d="M25.4,13.7H302c5.8,0,10.5,4.7,10.5,10.5v191.5c0,5.8-4.7,10.5-10.5,10.5H25.4c-5.8,0-10.5-4.7-10.5-10.5V24.3
		C14.9,18.5,19.6,13.7,25.4,13.7z"/>
	<path d="M26.4,14.7H303c5.8,0,10.5,4.7,10.5,10.5v191.5c0,5.8-4.7,10.5-10.5,10.5H26.4c-5.8,0-10.5-4.7-10.5-10.5V25.3
		C15.9,19.4,20.6,14.7,26.4,14.7z"/>
	<path d="M27.4,15.7h276.6c5.8,0,10.5,4.7,10.5,10.5v191.5c0,5.8-4.7,10.5-10.5,10.5H27.4c-5.8,0-10.5-4.7-10.5-10.5V26.2
		C16.8,20.4,21.5,15.7,27.4,15.7z"/>
	<path d="M28.3,16.7h276.6c5.8,0,10.5,4.7,10.5,10.5v191.5c0,5.8-4.7,10.5-10.5,10.5H28.3c-5.8,0-10.5-4.7-10.5-10.5V27.2
		C17.8,21.4,22.5,16.7,28.3,16.7z"/>
	<path d="M29.3,17.6h276.6c5.8,0,10.5,4.7,10.5,10.5v191.5c0,5.8-4.7,10.5-10.5,10.5H29.3c-5.8,0-10.5-4.7-10.5-10.5V28.2
		C18.8,22.4,23.5,17.6,29.3,17.6z"/>
	<path d="M30.3,18.6h276.6c5.8,0,10.5,4.7,10.5,10.5v191.5c0,5.8-4.7,10.5-10.5,10.5H30.3c-5.8,0-10.5-4.7-10.5-10.5V29.2
		C19.8,23.3,24.5,18.6,30.3,18.6z"/>
	<path d="M31.3,19.6h276.6c5.8,0,10.5,4.7,10.5,10.5v191.5c0,5.8-4.7,10.5-10.5,10.5H31.3c-5.8,0-10.5-4.7-10.5-10.5V30.1
		C20.7,24.3,25.4,19.6,31.3,19.6z"/>
	<path d="M32.2,20.6h276.6c5.8,0,10.5,4.7,10.5,10.5v191.5c0,5.8-4.7,10.5-10.5,10.5H32.2c-5.8,0-10.5-4.7-10.5-10.5V31.1
		C21.7,25.3,26.4,20.6,32.2,20.6z"/>
	<path d="M33.2,21.5h276.6c5.8,0,10.5,4.7,10.5,10.5v191.5c0,5.8-4.7,10.5-10.5,10.5H33.2c-5.8,0-10.5-4.7-10.5-10.5V32.1
		C22.7,26.3,27.4,21.5,33.2,21.5z"/>
	<path d="M34.2,22.5h276.6c5.8,0,10.5,4.7,10.5,10.5v191.5c0,5.8-4.7,10.5-10.5,10.5H34.2c-5.8,0-10.5-4.7-10.5-10.5V33.1
		C23.7,27.2,28.4,22.5,34.2,22.5z"/>
	<path d="M35.2,23.5h276.6c5.8,0,10.5,4.7,10.5,10.5v191.5c0,5.8-4.7,10.5-10.5,10.5H35.2c-5.8,0-10.5-4.7-10.5-10.5V34
		C24.6,28.2,29.3,23.5,35.2,23.5z"/>
	<path d="M36.1,24.5h276.6c5.8,0,10.5,4.7,10.5,10.5v191.5c0,5.8-4.7,10.5-10.5,10.5H36.1c-5.8,0-10.5-4.7-10.5-10.5V35
		C25.6,29.2,30.3,24.5,36.1,24.5z"/>
	<path d="M37.1,25.4h276.6c5.8,0,10.5,4.7,10.5,10.5v191.5c0,5.8-4.7,10.5-10.5,10.5H37.1c-5.8,0-10.5-4.7-10.5-10.5V36
		C26.6,30.2,31.3,25.4,37.1,25.4z"/>
	<path d="M38.1,26.4h276.6c5.8,0,10.5,4.7,10.5,10.5v191.5c0,5.8-4.7,10.5-10.5,10.5H38.1c-5.8,0-10.5-4.7-10.5-10.5V37
		C27.6,31.1,32.3,26.4,38.1,26.4z"/>
	<path d="M39.1,27.4h276.6c5.8,0,10.5,4.7,10.5,10.5v191.5c0,5.8-4.7,10.5-10.5,10.5H39.1c-5.8,0-10.5-4.7-10.5-10.5V37.9
		C28.5,32.1,33.2,27.4,39.1,27.4z"/>
	<path d="M40,28.4h276.6c5.8,0,10.5,4.7,10.5,10.5v191.5c0,5.8-4.7,10.5-10.5,10.5H40c-5.8,0-10.5-4.7-10.5-10.5V38.9
		C29.5,33.1,34.2,28.4,40,28.4z"/>
	<path d="M41,29.3h276.6c5.8,0,10.5,4.7,10.5,10.5v191.5c0,5.8-4.7,10.5-10.5,10.5H41c-5.8,0-10.5-4.7-10.5-10.5V39.9
		C30.5,34.1,35.2,29.3,41,29.3z"/>
	<path d="M42,30.3h276.6c5.8,0,10.5,4.7,10.5,10.5v191.5c0,5.8-4.7,10.5-10.5,10.5H42c-5.8,0-10.5-4.7-10.5-10.5V40.9
		C31.5,35,36.2,30.3,42,30.3z"/>
	<path d="M43,31.3h276.6c5.8,0,10.5,4.7,10.5,10.5v191.5c0,5.8-4.7,10.5-10.5,10.5H43c-5.8,0-10.5-4.7-10.5-10.5V41.8
		C32.4,36,37.1,31.3,43,31.3z"/>
	<path d="M43.9,32.3h276.6c5.8,0,10.5,4.7,10.5,10.5v191.5c0,5.8-4.7,10.5-10.5,10.5H43.9c-5.8,0-10.5-4.7-10.5-10.5V42.8
		C33.4,37,38.1,32.3,43.9,32.3z"/>
	<path d="M44.9,33.2h276.6c5.8,0,10.5,4.7,10.5,10.5v191.5c0,5.8-4.7,10.5-10.5,10.5H44.9c-5.8,0-10.5-4.7-10.5-10.5V43.8
		C34.4,38,39.1,33.2,44.9,33.2z"/>
	<path d="M45.9,34.2h276.6c5.8,0,10.5,4.7,10.5,10.5v191.5c0,5.8-4.7,10.5-10.5,10.5H45.9c-5.8,0-10.5-4.7-10.5-10.5V44.8
		C35.4,38.9,40.1,34.2,45.9,34.2z"/>
	<path d="M46.9,35.2l276.6,0c5.8,0,10.5,4.7,10.5,10.5v191.5c0,5.8-4.7,10.5-10.5,10.5H46.9c-5.8,0-10.5-4.7-10.5-10.5V45.7
		C36.3,39.9,41,35.2,46.9,35.2z"/>
	<path d="M47.8,36.2h276.6c5.8,0,10.5,4.7,10.5,10.5v191.5c0,5.8-4.7,10.5-10.5,10.5H47.8c-5.8,0-10.5-4.7-10.5-10.5V46.7
		C37.3,40.9,42,36.2,47.8,36.2z"/>
	<path d="M48.8,37.1h276.6c5.8,0,10.5,4.7,10.5,10.5v191.5c0,5.8-4.7,10.5-10.5,10.5H48.8c-5.8,0-10.5-4.7-10.5-10.5V47.7
		C38.3,41.9,43,37.1,48.8,37.1z"/>
	<path d="M49.8,38.1h276.6c5.8,0,10.5,4.7,10.5,10.5v191.5c0,5.8-4.7,10.5-10.5,10.5H49.8c-5.8,0-10.5-4.7-10.5-10.5V48.7
		C39.3,42.8,44,38.1,49.8,38.1z"/>
	<path d="M50.8,39.1h276.6c5.8,0,10.5,4.7,10.5,10.5v191.5c0,5.8-4.7,10.5-10.5,10.5H50.8c-5.8,0-10.5-4.7-10.5-10.5V49.6
		C40.2,43.8,44.9,39.1,50.8,39.1z"/>
	<path d="M51.7,40.1h276.6c5.8,0,10.5,4.7,10.5,10.5v191.5c0,5.8-4.7,10.5-10.5,10.5H51.7c-5.8,0-10.5-4.7-10.5-10.5V50.6
		C41.2,44.8,45.9,40.1,51.7,40.1z"/>
	<path d="M52.7,41h276.6c5.8,0,10.5,4.7,10.5,10.5v191.5c0,5.8-4.7,10.5-10.5,10.5H52.7c-5.8,0-10.5-4.7-10.5-10.5V51.6
		C42.2,45.8,46.9,41,52.7,41z"/>
	<path d="M53.7,42h276.6c5.8,0,10.5,4.7,10.5,10.5v191.5c0,5.8-4.7,10.5-10.5,10.5H53.7c-5.8,0-10.5-4.7-10.5-10.5V52.6
		C43.2,46.7,47.9,42,53.7,42z"/>
	<path d="M54.7,43h276.6c5.8,0,10.5,4.7,10.5,10.5v191.5c0,5.8-4.7,10.5-10.5,10.5H54.7c-5.8,0-10.5-4.7-10.5-10.5V53.5
		C44.1,47.7,48.8,43,54.7,43z"/>
	<path d="M55.6,44h276.6c5.8,0,10.5,4.7,10.5,10.5V246c0,5.8-4.7,10.5-10.5,10.5H55.6c-5.8,0-10.5-4.7-10.5-10.5V54.5
		C45.1,48.7,49.8,44,55.6,44z"/>
	<path d="M56.6,44.9h276.6c5.8,0,10.5,4.7,10.5,10.5V247c0,5.8-4.7,10.5-10.5,10.5H56.6c-5.8,0-10.5-4.7-10.5-10.5V55.5
		C46.1,49.7,50.8,44.9,56.6,44.9z"/>
	<path d="M57.6,45.9h276.6c5.8,0,10.5,4.7,10.5,10.5V248c0,5.8-4.7,10.5-10.5,10.5H57.6c-5.8,0-10.5-4.7-10.5-10.5V56.5
		C47.1,50.6,51.8,45.9,57.6,45.9z"/>
	<path d="M58.6,46.9h276.6c5.8,0,10.5,4.7,10.5,10.5V249c0,5.8-4.7,10.5-10.5,10.5H58.6c-5.8,0-10.5-4.7-10.5-10.5V57.4
		C48,51.6,52.7,46.9,58.6,46.9z"/>
	<path d="M59.5,47.9h276.6c5.8,0,10.5,4.7,10.5,10.5v191.5c0,5.8-4.7,10.5-10.5,10.5H59.5c-5.8,0-10.5-4.7-10.5-10.5V58.4
		C49,52.6,53.7,47.9,59.5,47.9z"/>
	<path d="M60.5,48.8h276.6c5.8,0,10.5,4.7,10.5,10.5v191.5c0,5.8-4.7,10.5-10.5,10.5H60.5c-5.8,0-10.5-4.7-10.5-10.5V59.4
		C50,53.6,54.7,48.8,60.5,48.8z"/>
	<path d="M61.5,49.8h276.6c5.8,0,10.5,4.7,10.5,10.5v191.5c0,5.8-4.7,10.5-10.5,10.5H61.5c-5.8,0-10.5-4.7-10.5-10.5V60.4
		C51,54.5,55.7,49.8,61.5,49.8z"/>
	<path d="M62.5,50.8H339c5.8,0,10.5,4.7,10.5,10.5v191.5c0,5.8-4.7,10.5-10.5,10.5H62.5c-5.8,0-10.5-4.7-10.5-10.5V61.3
		C51.9,55.5,56.6,50.8,62.5,50.8z"/>
	<path d="M63.4,51.8H340c5.8,0,10.5,4.7,10.5,10.5v191.5c0,5.8-4.7,10.5-10.5,10.5H63.4c-5.8,0-10.5-4.7-10.5-10.5V62.3
		C52.9,56.5,57.6,51.8,63.4,51.8z"/>
	<path d="M64.4,52.7H341c5.8,0,10.5,4.7,10.5,10.5v191.5c0,5.8-4.7,10.5-10.5,10.5H64.4c-5.8,0-10.5-4.7-10.5-10.5V63.3
		C53.9,57.5,58.6,52.7,64.4,52.7z"/>
	<path d="M65.4,53.7H342c5.8,0,10.5,4.7,10.5,10.5v191.5c0,5.8-4.7,10.5-10.5,10.5H65.4c-5.8,0-10.5-4.7-10.5-10.5V64.3
		C54.9,58.4,59.6,53.7,65.4,53.7z"/>
	<path d="M66.4,54.7h276.6c5.8,0,10.5,4.7,10.5,10.5v191.5c0,5.8-4.7,10.5-10.5,10.5H66.4c-5.8,0-10.5-4.7-10.5-10.5V65.2
		C55.8,59.4,60.5,54.7,66.4,54.7z"/>
	<path d="M67.3,55.7h276.6c5.8,0,10.5,4.7,10.5,10.5v191.5c0,5.8-4.7,10.5-10.5,10.5H67.3c-5.8,0-10.5-4.7-10.5-10.5V66.2
		C56.8,60.4,61.5,55.7,67.3,55.7z"/>
	<path d="M68.3,56.6h276.6c5.8,0,10.5,4.7,10.5,10.5v191.5c0,5.8-4.7,10.5-10.5,10.5H68.3c-5.8,0-10.5-4.7-10.5-10.5V67.2
		C57.8,61.4,62.5,56.6,68.3,56.6z"/>
	<path d="M69.3,57.6h276.6c5.8,0,10.5,4.7,10.5,10.5v191.5c0,5.8-4.7,10.5-10.5,10.5H69.3c-5.8,0-10.5-4.7-10.5-10.5V68.2
		C58.8,62.3,63.5,57.6,69.3,57.6z"/>
	<path d="M70.3,58.6h276.6c5.8,0,10.5,4.7,10.5,10.5v191.5c0,5.8-4.7,10.5-10.5,10.5H70.3c-5.8,0-10.5-4.7-10.5-10.5V69.1
		C59.7,63.3,64.4,58.6,70.3,58.6z"/>
	<path d="M71.2,59.6h276.6c5.8,0,10.5,4.7,10.5,10.5v191.5c0,5.8-4.7,10.5-10.5,10.5H71.2c-5.8,0-10.5-4.7-10.5-10.5V70.1
		C60.7,64.3,65.4,59.6,71.2,59.6z"/>
	<path d="M72.2,60.5h276.6c5.8,0,10.5,4.7,10.5,10.5v191.5c0,5.8-4.7,10.5-10.5,10.5H72.2c-5.8,0-10.5-4.7-10.5-10.5V71.1
		C61.7,65.3,66.4,60.5,72.2,60.5z"/>
	<path d="M73.2,61.5h276.6c5.8,0,10.5,4.7,10.5,10.5v191.5c0,5.8-4.7,10.5-10.5,10.5H73.2c-5.8,0-10.5-4.7-10.5-10.5V72.1
		C62.7,66.2,67.4,61.5,73.2,61.5z"/>
	<path d="M74.2,62.5h276.6c5.8,0,10.5,4.7,10.5,10.5v191.5c0,5.8-4.7,10.5-10.5,10.5H74.2c-5.8,0-10.5-4.7-10.5-10.5V73
		C63.6,67.2,68.3,62.5,74.2,62.5z"/>
	<path d="M75.1,63.5h276.6c5.8,0,10.5,4.7,10.5,10.5v191.5c0,5.8-4.7,10.5-10.5,10.5H75.1c-5.8,0-10.5-4.7-10.5-10.5V74
		C64.6,68.2,69.3,63.5,75.1,63.5z"/>
	<path d="M76.1,64.4h276.6c5.8,0,10.5,4.7,10.5,10.5v191.5c0,5.8-4.7,10.5-10.5,10.5H76.1c-5.8,0-10.5-4.7-10.5-10.5V75
		C65.6,69.2,70.3,64.4,76.1,64.4z"/>
	<path d="M77.1,65.4h276.6c5.8,0,10.5,4.7,10.5,10.5v191.5c0,5.8-4.7,10.5-10.5,10.5H77.1c-5.8,0-10.5-4.7-10.5-10.5V76
		C66.6,70.1,71.3,65.4,77.1,65.4z"/>
	<path d="M78.1,66.4h276.6c5.8,0,10.5,4.7,10.5,10.5v191.5c0,5.8-4.7,10.5-10.5,10.5H78.1c-5.8,0-10.5-4.7-10.5-10.5V76.9
		C67.5,71.1,72.2,66.4,78.1,66.4z"/>
	<path d="M79,67.4h276.6c5.8,0,10.5,4.7,10.5,10.5v191.5c0,5.8-4.7,10.5-10.5,10.5H79c-5.8,0-10.5-4.7-10.5-10.5V77.9
		C68.5,72.1,73.2,67.4,79,67.4z"/>
	<path d="M80,68.3h276.6c5.8,0,10.5,4.7,10.5,10.5v191.5c0,5.8-4.7,10.5-10.5,10.5H80c-5.8,0-10.5-4.7-10.5-10.5V78.9
		C69.5,73.1,74.2,68.3,80,68.3z"/>
	<path d="M81,69.3h276.6c5.8,0,10.5,4.7,10.5,10.5v191.5c0,5.8-4.7,10.5-10.5,10.5H81c-5.8,0-10.5-4.7-10.5-10.5V79.9
		C70.5,74,75.2,69.3,81,69.3z"/>
	<path d="M82,70.3h276.6c5.8,0,10.5,4.7,10.5,10.5v191.5c0,5.8-4.7,10.5-10.5,10.5H82c-5.8,0-10.5-4.7-10.5-10.5V80.8
		C71.4,75,76.1,70.3,82,70.3z"/>
	<path d="M82.9,71.3h276.6c5.8,0,10.5,4.7,10.5,10.5v191.5c0,5.8-4.7,10.5-10.5,10.5H82.9c-5.8,0-10.5-4.7-10.5-10.5V81.8
		C72.4,76,77.1,71.3,82.9,71.3z"/>
	<path d="M83.9,72.2h276.6c5.8,0,10.5,4.7,10.5,10.5v191.5c0,5.8-4.7,10.5-10.5,10.5H83.9c-5.8,0-10.5-4.7-10.5-10.5V82.8
		C73.4,77,78.1,72.2,83.9,72.2z"/>
	<path d="M84.9,73.2h276.6c5.8,0,10.5,4.7,10.5,10.5v191.5c0,5.8-4.7,10.5-10.5,10.5H84.9c-5.8,0-10.5-4.7-10.5-10.5V83.8
		C74.4,77.9,79.1,73.2,84.9,73.2z"/>
	<path d="M85.9,74.2h276.6c5.8,0,10.5,4.7,10.5,10.5v191.5c0,5.8-4.7,10.5-10.5,10.5H85.9c-5.8,0-10.5-4.7-10.5-10.5V84.7
		C75.3,78.9,80,74.2,85.9,74.2z"/>
	<path d="M86.8,75.2h276.6c5.8,0,10.5,4.7,10.5,10.5v191.5c0,5.8-4.7,10.5-10.5,10.5H86.8c-5.8,0-10.5-4.7-10.5-10.5V85.7
		C76.3,79.9,81,75.2,86.8,75.2z"/>
	<path d="M87.8,76.1h276.6c5.8,0,10.5,4.7,10.5,10.5v191.5c0,5.8-4.7,10.5-10.5,10.5H87.8c-5.8,0-10.5-4.7-10.5-10.5V86.7
		C77.3,80.9,82,76.1,87.8,76.1z"/>
	<path d="M88.8,77.1l276.6,0c5.8,0,10.5,4.7,10.5,10.5v191.5c0,5.8-4.7,10.5-10.5,10.5H88.8c-5.8,0-10.5-4.7-10.5-10.5V87.7
		C78.3,81.8,83,77.1,88.8,77.1z"/>
	<path d="M89.8,78.1h276.6c5.8,0,10.5,4.7,10.5,10.5v191.5c0,5.8-4.7,10.5-10.5,10.5H89.8c-5.8,0-10.5-4.7-10.5-10.5V88.6
		C79.2,82.8,83.9,78.1,89.8,78.1z"/>
	<path d="M90.7,79.1h276.6c5.8,0,10.5,4.7,10.5,10.5v191.5c0,5.8-4.7,10.5-10.5,10.5H90.7c-5.8,0-10.5-4.7-10.5-10.5V89.6
		C80.2,83.8,84.9,79.1,90.7,79.1z"/>
	<path d="M91.7,80h276.6c5.8,0,10.5,4.7,10.5,10.5v191.5c0,5.8-4.7,10.5-10.5,10.5H91.7c-5.8,0-10.5-4.7-10.5-10.5V90.6
		C81.2,84.8,85.9,80,91.7,80z"/>
	<path d="M92.7,81h276.6c5.8,0,10.5,4.7,10.5,10.5v191.5c0,5.8-4.7,10.5-10.5,10.5H92.7c-5.8,0-10.5-4.7-10.5-10.5V91.6
		C82.2,85.7,86.9,81,92.7,81z"/>
	<path d="M93.7,82h276.6c5.8,0,10.5,4.7,10.5,10.5v191.5c0,5.8-4.7,10.5-10.5,10.5H93.7c-5.8,0-10.5-4.7-10.5-10.5V92.5
		C83.1,86.7,87.8,82,93.7,82z"/>
	<path d="M94.6,83h276.6c5.8,0,10.5,4.7,10.5,10.5V285c0,5.8-4.7,10.5-10.5,10.5H94.6c-5.8,0-10.5-4.7-10.5-10.5V93.5
		C84.1,87.7,88.8,83,94.6,83z"/>
	<path d="M95.6,83.9h276.6c5.8,0,10.5,4.7,10.5,10.5V286c0,5.8-4.7,10.5-10.5,10.5H95.6c-5.8,0-10.5-4.7-10.5-10.5V94.5
		C85.1,88.7,89.8,83.9,95.6,83.9z"/>
	<path d="M96.6,84.9h276.6c5.8,0,10.5,4.7,10.5,10.5V287c0,5.8-4.7,10.5-10.5,10.5H96.6c-5.8,0-10.5-4.7-10.5-10.5V95.5
		C86.1,89.6,90.8,84.9,96.6,84.9z"/>
	<path d="M97.6,85.9h276.6c5.8,0,10.5,4.7,10.5,10.5V288c0,5.8-4.7,10.5-10.5,10.5H97.6c-5.8,0-10.5-4.7-10.5-10.5V96.4
		C87,90.6,91.7,85.9,97.6,85.9z"/>
	<path d="M98.5,86.9h276.6c5.8,0,10.5,4.7,10.5,10.5v191.5c0,5.8-4.7,10.5-10.5,10.5H98.5c-5.8,0-10.5-4.7-10.5-10.5V97.4
		C88,91.6,92.7,86.9,98.5,86.9z"/>
	<path d="M99.5,87.8h276.6c5.8,0,10.5,4.7,10.5,10.5v191.5c0,5.8-4.7,10.5-10.5,10.5H99.5c-5.8,0-10.5-4.7-10.5-10.5V98.4
		C89,92.6,93.7,87.8,99.5,87.8z"/>
	<path d="M100.5,88.8h276.6c5.8,0,10.5,4.7,10.5,10.5v191.5c0,5.8-4.7,10.5-10.5,10.5H100.5c-5.8,0-10.5-4.7-10.5-10.5V99.4
		C90,93.5,94.7,88.8,100.5,88.8z"/>
	<path d="M101.5,89.8H378c5.8,0,10.5,4.7,10.5,10.5v191.5c0,5.8-4.7,10.5-10.5,10.5H101.5c-5.8,0-10.5-4.7-10.5-10.5V100.3
		C90.9,94.5,95.6,89.8,101.5,89.8z"/>
	<path d="M102.4,90.8H379c5.8,0,10.5,4.7,10.5,10.5v191.5c0,5.8-4.7,10.5-10.5,10.5H102.4c-5.8,0-10.5-4.7-10.5-10.5V101.3
		C91.9,95.5,96.6,90.8,102.4,90.8z"/>
	<path d="M103.4,91.7H380c5.8,0,10.5,4.7,10.5,10.5v191.5c0,5.8-4.7,10.5-10.5,10.5H103.4c-5.8,0-10.5-4.7-10.5-10.5V102.3
		C92.9,96.5,97.6,91.7,103.4,91.7z"/>
	<path d="M104.4,92.7H381c5.8,0,10.5,4.7,10.5,10.5v191.5c0,5.8-4.7,10.5-10.5,10.5H104.4c-5.8,0-10.5-4.7-10.5-10.5V103.3
		C93.9,97.4,98.6,92.7,104.4,92.7z"/>
	<path d="M105.4,93.7h276.6c5.8,0,10.5,4.7,10.5,10.5v191.5c0,5.8-4.7,10.5-10.5,10.5H105.4c-5.8,0-10.5-4.7-10.5-10.5V104.2
		C94.8,98.4,99.5,93.7,105.4,93.7z"/>
	<path d="M106.3,94.7h276.6c5.8,0,10.5,4.7,10.5,10.5v191.5c0,5.8-4.7,10.5-10.5,10.5H106.3c-5.8,0-10.5-4.7-10.5-10.5V105.2
		C95.8,99.4,100.5,94.7,106.3,94.7z"/>
	<path d="M107.3,95.6h276.6c5.8,0,10.5,4.7,10.5,10.5v191.5c0,5.8-4.7,10.5-10.5,10.5H107.3c-5.8,0-10.5-4.7-10.5-10.5V106.2
		C96.8,100.4,101.5,95.6,107.3,95.6z"/>
	<path d="M108.3,96.6h276.6c5.8,0,10.5,4.7,10.5,10.5v191.5c0,5.8-4.7,10.5-10.5,10.5H108.3c-5.8,0-10.5-4.7-10.5-10.5V107.2
		C97.8,101.3,102.5,96.6,108.3,96.6z"/>
	<path d="M109.3,97.6h276.6c5.8,0,10.5,4.7,10.5,10.5v191.5c0,5.8-4.7,10.5-10.5,10.5H109.3c-5.8,0-10.5-4.7-10.5-10.5V108.1
		C98.7,102.3,103.4,97.6,109.3,97.6z"/>
	<path d="M110.2,98.6h276.6c5.8,0,10.5,4.7,10.5,10.5v191.5c0,5.8-4.7,10.5-10.5,10.5H110.2c-5.8,0-10.5-4.7-10.5-10.5V109.1
		C99.7,103.3,104.4,98.6,110.2,98.6z"/>
	<path d="M111.2,99.5h276.6c5.8,0,10.5,4.7,10.5,10.5v191.5c0,5.8-4.7,10.5-10.5,10.5H111.2c-5.8,0-10.5-4.7-10.5-10.5V110.1
		C100.7,104.3,105.4,99.5,111.2,99.5z"/>
	<path d="M112.2,100.5h276.6c5.8,0,10.5,4.7,10.5,10.5v191.5c0,5.8-4.7,10.5-10.5,10.5H112.2c-5.8,0-10.5-4.7-10.5-10.5V111.1
		C101.7,105.2,106.4,100.5,112.2,100.5z"/>
	<path d="M113.2,101.5h276.6c5.8,0,10.5,4.7,10.5,10.5v191.5c0,5.8-4.7,10.5-10.5,10.5H113.2c-5.8,0-10.5-4.7-10.5-10.5V112
		C102.6,106.2,107.3,101.5,113.2,101.5z"/>
	<path d="M114.1,102.5h276.6c5.8,0,10.5,4.7,10.5,10.5v191.5c0,5.8-4.7,10.5-10.5,10.5H114.1c-5.8,0-10.5-4.7-10.5-10.5V113
		C103.6,107.2,108.3,102.5,114.1,102.5z"/>
	<path d="M115.1,103.4h276.6c5.8,0,10.5,4.7,10.5,10.5v191.5c0,5.8-4.7,10.5-10.5,10.5H115.1c-5.8,0-10.5-4.7-10.5-10.5V114
		C104.6,108.2,109.3,103.4,115.1,103.4z"/>
	<path d="M116.1,104.4h276.6c5.8,0,10.5,4.7,10.5,10.5v191.5c0,5.8-4.7,10.5-10.5,10.5H116.1c-5.8,0-10.5-4.7-10.5-10.5V115
		C105.6,109.1,110.3,104.4,116.1,104.4z"/>
	<path d="M117.1,105.4h276.6c5.8,0,10.5,4.7,10.5,10.5v191.5c0,5.8-4.7,10.5-10.5,10.5H117.1c-5.8,0-10.5-4.7-10.5-10.5V115.9
		C106.5,110.1,111.2,105.4,117.1,105.4z"/>
	<path d="M118,106.4h276.6c5.8,0,10.5,4.7,10.5,10.5v191.5c0,5.8-4.7,10.5-10.5,10.5H118c-5.8,0-10.5-4.7-10.5-10.5V116.9
		C107.5,111.1,112.2,106.4,118,106.4z"/>
	<path d="M119,107.3h276.6c5.8,0,10.5,4.7,10.5,10.5v191.5c0,5.8-4.7,10.5-10.5,10.5H119c-5.8,0-10.5-4.7-10.5-10.5V117.9
		C108.5,112.1,113.2,107.3,119,107.3z"/>
	<path d="M120,108.3h276.6c5.8,0,10.5,4.7,10.5,10.5v191.5c0,5.8-4.7,10.5-10.5,10.5H120c-5.8,0-10.5-4.7-10.5-10.5V118.9
		C109.5,113,114.2,108.3,120,108.3z"/>
	<path d="M121,109.3h276.6c5.8,0,10.5,4.7,10.5,10.5v191.5c0,5.8-4.7,10.5-10.5,10.5H121c-5.8,0-10.5-4.7-10.5-10.5V119.8
		C110.4,114,115.1,109.3,121,109.3z"/>
	<path d="M121.9,110.3h276.6c5.8,0,10.5,4.7,10.5,10.5v191.5c0,5.8-4.7,10.5-10.5,10.5H121.9c-5.8,0-10.5-4.7-10.5-10.5V120.8
		C111.4,115,116.1,110.3,121.9,110.3z"/>
	<path d="M122.9,111.2h276.6c5.8,0,10.5,4.7,10.5,10.5v191.5c0,5.8-4.7,10.5-10.5,10.5H122.9c-5.8,0-10.5-4.7-10.5-10.5V121.8
		C112.4,116,117.1,111.2,122.9,111.2z"/>
	<path d="M123.9,112.2h276.6c5.8,0,10.5,4.7,10.5,10.5v191.5c0,5.8-4.7,10.5-10.5,10.5H123.9c-5.8,0-10.5-4.7-10.5-10.5V122.8
		C113.4,116.9,118.1,112.2,123.9,112.2z"/>
	<path d="M124.9,113.2h276.6c5.8,0,10.5,4.7,10.5,10.5v191.5c0,5.8-4.7,10.5-10.5,10.5H124.9c-5.8,0-10.5-4.7-10.5-10.5V123.7
		C114.3,117.9,119,113.2,124.9,113.2z"/>
	<path d="M125.8,114.2h276.6c5.8,0,10.5,4.7,10.5,10.5v191.5c0,5.8-4.7,10.5-10.5,10.5H125.8c-5.8,0-10.5-4.7-10.5-10.5V124.7
		C115.3,118.9,120,114.2,125.8,114.2z"/>
	<path d="M126.8,115.1h276.6c5.8,0,10.5,4.7,10.5,10.5v191.5c0,5.8-4.7,10.5-10.5,10.5H126.8c-5.8,0-10.5-4.7-10.5-10.5V125.7
		C116.3,119.9,121,115.1,126.8,115.1z"/>
	<path d="M127.8,116.1h276.6c5.8,0,10.5,4.7,10.5,10.5v191.5c0,5.8-4.7,10.5-10.5,10.5H127.8c-5.8,0-10.5-4.7-10.5-10.5V126.7
		C117.3,120.8,122,116.1,127.8,116.1z"/>
	<path d="M128.8,117.1h276.6c5.8,0,10.5,4.7,10.5,10.5v191.5c0,5.8-4.7,10.5-10.5,10.5H128.8c-5.8,0-10.5-4.7-10.5-10.5V127.6
		C118.2,121.8,122.9,117.1,128.8,117.1z"/>
	<path d="M129.7,118.1h276.6c5.8,0,10.5,4.7,10.5,10.5v191.5c0,5.8-4.7,10.5-10.5,10.5H129.7c-5.8,0-10.5-4.7-10.5-10.5V128.6
		C119.2,122.8,123.9,118.1,129.7,118.1z"/>
	<path d="M130.7,119h276.6c5.8,0,10.5,4.7,10.5,10.5v191.5c0,5.8-4.7,10.5-10.5,10.5H130.7c-5.8,0-10.5-4.7-10.5-10.5V129.6
		C120.2,123.8,124.9,119,130.7,119z"/>
	<path d="M131.7,120h276.6c5.8,0,10.5,4.7,10.5,10.5v191.5c0,5.8-4.7,10.5-10.5,10.5H131.7c-5.8,0-10.5-4.7-10.5-10.5V130.6
		C121.2,124.7,125.9,120,131.7,120z"/>
	<path d="M132.7,121h276.6c5.8,0,10.5,4.7,10.5,10.5v191.5c0,5.8-4.7,10.5-10.5,10.5H132.7c-5.8,0-10.5-4.7-10.5-10.5V131.5
		C122.1,125.7,126.8,121,132.7,121z"/>
	<path d="M133.6,122h276.6c5.8,0,10.5,4.7,10.5,10.5V324c0,5.8-4.7,10.5-10.5,10.5H133.6c-5.8,0-10.5-4.7-10.5-10.5V132.5
		C123.1,126.7,127.8,122,133.6,122z"/>
	<path d="M134.6,122.9h276.6c5.8,0,10.5,4.7,10.5,10.5V325c0,5.8-4.7,10.5-10.5,10.5H134.6c-5.8,0-10.5-4.7-10.5-10.5V133.5
		C124.1,127.7,128.8,122.9,134.6,122.9z"/>
	<path d="M135.6,123.9h276.6c5.8,0,10.5,4.7,10.5,10.5V326c0,5.8-4.7,10.5-10.5,10.5H135.6c-5.8,0-10.5-4.7-10.5-10.5V134.5
		C125,128.6,129.8,123.9,135.6,123.9z"/>
	<path d="M136.6,124.9h276.6c5.8,0,10.5,4.7,10.5,10.5V327c0,5.8-4.7,10.5-10.5,10.5H136.6c-5.8,0-10.5-4.7-10.5-10.5V135.4
		C126,129.6,130.7,124.9,136.6,124.9z"/>
	<path d="M137.5,125.9h276.6c5.8,0,10.5,4.7,10.5,10.5v191.5c0,5.8-4.7,10.5-10.5,10.5H137.5c-5.8,0-10.5-4.7-10.5-10.5V136.4
		C127,130.6,131.7,125.9,137.5,125.9z"/>
	<path d="M138.5,126.8h276.6c5.8,0,10.5,4.7,10.5,10.5v191.5c0,5.8-4.7,10.5-10.5,10.5H138.5c-5.8,0-10.5-4.7-10.5-10.5V137.4
		C128,131.6,132.7,126.8,138.5,126.8z"/>
	<path d="M139.5,127.8h276.6c5.8,0,10.5,4.7,10.5,10.5v191.5c0,5.8-4.7,10.5-10.5,10.5H139.5c-5.8,0-10.5-4.7-10.5-10.5V138.4
		C128.9,132.5,133.7,127.8,139.5,127.8z"/>
	<path d="M140.5,128.8H417c5.8,0,10.5,4.7,10.5,10.5v191.5c0,5.8-4.7,10.5-10.5,10.5H140.5c-5.8,0-10.5-4.7-10.5-10.5V139.3
		C129.9,133.5,134.6,128.8,140.5,128.8z"/>
	<path d="M141.4,129.8H418c5.8,0,10.5,4.7,10.5,10.5v191.5c0,5.8-4.7,10.5-10.5,10.5H141.4c-5.8,0-10.5-4.7-10.5-10.5V140.3
		C130.9,134.5,135.6,129.8,141.4,129.8z"/>
	<path d="M142.4,130.7H419c5.8,0,10.5,4.7,10.5,10.5v191.5c0,5.8-4.7,10.5-10.5,10.5H142.4c-5.8,0-10.5-4.7-10.5-10.5V141.3
		C131.9,135.5,136.6,130.7,142.4,130.7z"/>
	<path d="M143.4,131.7H420c5.8,0,10.5,4.7,10.5,10.5v191.5c0,5.8-4.7,10.5-10.5,10.5H143.4c-5.8,0-10.5-4.7-10.5-10.5V142.3
		C132.8,136.4,137.6,131.7,143.4,131.7z"/>
	<path d="M144.4,132.7h276.6c5.8,0,10.5,4.7,10.5,10.5v191.5c0,5.8-4.7,10.5-10.5,10.5H144.4c-5.8,0-10.5-4.7-10.5-10.5V143.2
		C133.8,137.4,138.5,132.7,144.4,132.7z"/>
	<path d="M145.3,133.7h276.6c5.8,0,10.5,4.7,10.5,10.5v191.5c0,5.8-4.7,10.5-10.5,10.5H145.3c-5.8,0-10.5-4.7-10.5-10.5V144.2
		C134.8,138.4,139.5,133.7,145.3,133.7z"/>
	<path d="M146.3,134.6h276.6c5.8,0,10.5,4.7,10.5,10.5v191.5c0,5.8-4.7,10.5-10.5,10.5H146.3c-5.8,0-10.5-4.7-10.5-10.5V145.2
		C135.8,139.4,140.5,134.6,146.3,134.6z"/>
	<path d="M147.3,135.6h276.6c5.8,0,10.5,4.7,10.5,10.5v191.5c0,5.8-4.7,10.5-10.5,10.5H147.3c-5.8,0-10.5-4.7-10.5-10.5V146.2
		C136.7,140.3,141.5,135.6,147.3,135.6z"/>
	<path d="M148.3,136.6h276.6c5.8,0,10.5,4.7,10.5,10.5v191.5c0,5.8-4.7,10.5-10.5,10.5H148.3c-5.8,0-10.5-4.7-10.5-10.5V147.1
		C137.7,141.3,142.4,136.6,148.3,136.6z"/>
	<path d="M149.2,137.6h276.6c5.8,0,10.5,4.7,10.5,10.5v191.5c0,5.8-4.7,10.5-10.5,10.5H149.2c-5.8,0-10.5-4.7-10.5-10.5V148.1
		C138.7,142.3,143.4,137.6,149.2,137.6z"/>
	<path d="M150.2,138.5h276.6c5.8,0,10.5,4.7,10.5,10.5v191.5c0,5.8-4.7,10.5-10.5,10.5H150.2c-5.8,0-10.5-4.7-10.5-10.5V149.1
		C139.7,143.3,144.4,138.5,150.2,138.5z"/>
	<path d="M151.2,139.5h276.6c5.8,0,10.5,4.7,10.5,10.5v191.5c0,5.8-4.7,10.5-10.5,10.5H151.2c-5.8,0-10.5-4.7-10.5-10.5V150.1
		C140.6,144.2,145.4,139.5,151.2,139.5z"/>
	<path d="M152.2,140.5h276.6c5.8,0,10.5,4.7,10.5,10.5v191.5c0,5.8-4.7,10.5-10.5,10.5H152.2c-5.8,0-10.5-4.7-10.5-10.5V151
		C141.6,145.2,146.3,140.5,152.2,140.5z"/>
	<path d="M153.1,141.5h276.6c5.8,0,10.5,4.7,10.5,10.5v191.5c0,5.8-4.7,10.5-10.5,10.5H153.1c-5.8,0-10.5-4.7-10.5-10.5V152
		C142.6,146.2,147.3,141.5,153.1,141.5z"/>
	<path d="M154.1,142.4h276.6c5.8,0,10.5,4.7,10.5,10.5v191.5c0,5.8-4.7,10.5-10.5,10.5H154.1c-5.8,0-10.5-4.7-10.5-10.5V153
		C143.6,147.2,148.3,142.4,154.1,142.4z"/>
	<path d="M155.1,143.4h276.6c5.8,0,10.5,4.7,10.5,10.5v191.5c0,5.8-4.7,10.5-10.5,10.5H155.1c-5.8,0-10.5-4.7-10.5-10.5V154
		C144.5,148.1,149.3,143.4,155.1,143.4z"/>
	<path d="M156.1,144.4h276.6c5.8,0,10.5,4.7,10.5,10.5v191.5c0,5.8-4.7,10.5-10.5,10.5H156.1c-5.8,0-10.5-4.7-10.5-10.5V154.9
		C145.5,149.1,150.2,144.4,156.1,144.4z"/>
	<path d="M157,145.4h276.6c5.8,0,10.5,4.7,10.5,10.5v191.5c0,5.8-4.7,10.5-10.5,10.5H157c-5.8,0-10.5-4.7-10.5-10.5V155.9
		C146.5,150.1,151.2,145.4,157,145.4z"/>
	<path d="M158,146.3h276.6c5.8,0,10.5,4.7,10.5,10.5v191.5c0,5.8-4.7,10.5-10.5,10.5H158c-5.8,0-10.5-4.7-10.5-10.5V156.9
		C147.5,151.1,152.2,146.3,158,146.3z"/>
	<path d="M159,147.3h276.6c5.8,0,10.5,4.7,10.5,10.5v191.5c0,5.8-4.7,10.5-10.5,10.5H159c-5.8,0-10.5-4.7-10.5-10.5V157.9
		C148.4,152,153.2,147.3,159,147.3z"/>
	<path d="M160,148.3h276.6c5.8,0,10.5,4.7,10.5,10.5v191.5c0,5.8-4.7,10.5-10.5,10.5H160c-5.8,0-10.5-4.7-10.5-10.5V158.8
		C149.4,153,154.1,148.3,160,148.3z"/>
	<path d="M160.9,149.3h276.6c5.8,0,10.5,4.7,10.5,10.5v191.5c0,5.8-4.7,10.5-10.5,10.5H160.9c-5.8,0-10.5-4.7-10.5-10.5V159.8
		C150.4,154,155.1,149.3,160.9,149.3z"/>
	<path d="M161.9,150.2h276.6c5.8,0,10.5,4.7,10.5,10.5v191.5c0,5.8-4.7,10.5-10.5,10.5H161.9c-5.8,0-10.5-4.7-10.5-10.5V160.8
		C151.4,155,156.1,150.2,161.9,150.2z"/>
	<path d="M162.9,151.2h276.6c5.8,0,10.5,4.7,10.5,10.5v191.5c0,5.8-4.7,10.5-10.5,10.5H162.9c-5.8,0-10.5-4.7-10.5-10.5V161.8
		C152.3,155.9,157.1,151.2,162.9,151.2z"/>
	<path d="M163.9,152.2h276.6c5.8,0,10.5,4.7,10.5,10.5v191.5c0,5.8-4.7,10.5-10.5,10.5H163.9c-5.8,0-10.5-4.7-10.5-10.5V162.7
		C153.3,156.9,158,152.2,163.9,152.2z"/>
	<path d="M164.8,153.2h276.6c5.8,0,10.5,4.7,10.5,10.5v191.5c0,5.8-4.7,10.5-10.5,10.5H164.8c-5.8,0-10.5-4.7-10.5-10.5V163.7
		C154.3,157.9,159,153.2,164.8,153.2z"/>
	<path d="M165.8,154.1h276.6c5.8,0,10.5,4.7,10.5,10.5v191.5c0,5.8-4.7,10.5-10.5,10.5H165.8c-5.8,0-10.5-4.7-10.5-10.5V164.7
		C155.3,158.9,160,154.1,165.8,154.1z"/>
	<path d="M166.8,155.1h276.6c5.8,0,10.5,4.7,10.5,10.5v191.5c0,5.8-4.7,10.5-10.5,10.5H166.8c-5.8,0-10.5-4.7-10.5-10.5V165.7
		C156.2,159.8,161,155.1,166.8,155.1z"/>
	<path d="M167.8,156.1h276.6c5.8,0,10.5,4.7,10.5,10.5v191.5c0,5.8-4.7,10.5-10.5,10.5H167.8c-5.8,0-10.5-4.7-10.5-10.5V166.6
		C157.2,160.8,161.9,156.1,167.8,156.1z"/>
	<path d="M168.7,157.1h276.6c5.8,0,10.5,4.7,10.5,10.5v191.5c0,5.8-4.7,10.5-10.5,10.5H168.7c-5.8,0-10.5-4.7-10.5-10.5V167.6
		C158.2,161.8,162.9,157.1,168.7,157.1z"/>
	<path d="M169.7,158h276.6c5.8,0,10.5,4.7,10.5,10.5v191.5c0,5.8-4.7,10.5-10.5,10.5H169.7c-5.8,0-10.5-4.7-10.5-10.5V168.6
		C159.2,162.8,163.9,158,169.7,158z"/>
	<path d="M170.7,159h276.6c5.8,0,10.5,4.7,10.5,10.5v191.5c0,5.8-4.7,10.5-10.5,10.5H170.7c-5.8,0-10.5-4.7-10.5-10.5V169.6
		C160.1,163.7,164.9,159,170.7,159z"/>
	<path d="M171.7,160h276.6c5.8,0,10.5,4.7,10.5,10.5v191.5c0,5.8-4.7,10.5-10.5,10.5H171.7c-5.8,0-10.5-4.7-10.5-10.5V170.5
		C161.1,164.7,165.8,160,171.7,160z"/>
	<path d="M172.6,161h276.6c5.8,0,10.5,4.7,10.5,10.5V363c0,5.8-4.7,10.5-10.5,10.5H172.6c-5.8,0-10.5-4.7-10.5-10.5V171.5
		C162.1,165.7,166.8,161,172.6,161z"/>
	<path d="M173.6,161.9h276.6c5.8,0,10.5,4.7,10.5,10.5V364c0,5.8-4.7,10.5-10.5,10.5H173.6c-5.8,0-10.5-4.7-10.5-10.5V172.5
		C163.1,166.7,167.8,161.9,173.6,161.9z"/>
	<path d="M174.6,162.9h276.6c5.8,0,10.5,4.7,10.5,10.5V365c0,5.8-4.7,10.5-10.5,10.5H174.6c-5.8,0-10.5-4.7-10.5-10.5V173.4
		C164,167.6,168.8,162.9,174.6,162.9z"/>
	<path d="M175.6,163.9h276.6c5.8,0,10.5,4.7,10.5,10.5V366c0,5.8-4.7,10.5-10.5,10.5H175.6c-5.8,0-10.5-4.7-10.5-10.5V174.4
		C165,168.6,169.7,163.9,175.6,163.9z"/>
	<path d="M176.5,164.9h276.6c5.8,0,10.5,4.7,10.5,10.5v191.5c0,5.8-4.7,10.5-10.5,10.5H176.5c-5.8,0-10.5-4.7-10.5-10.5V175.4
		C166,169.6,170.7,164.9,176.5,164.9z"/>
	<path d="M177.5,165.8h276.6c5.8,0,10.5,4.7,10.5,10.5v191.5c0,5.8-4.7,10.5-10.5,10.5H177.5c-5.8,0-10.5-4.7-10.5-10.5V176.4
		C167,170.6,171.7,165.8,177.5,165.8z"/>
	<path d="M178.5,166.8H455c5.8,0,10.5,4.7,10.5,10.5v191.5c0,5.8-4.7,10.5-10.5,10.5H178.5c-5.8,0-10.5-4.7-10.5-10.5V177.3
		C167.9,171.5,172.7,166.8,178.5,166.8z"/>
	<path d="M179.5,167.8H456c5.8,0,10.5,4.7,10.5,10.5v191.5c0,5.8-4.7,10.5-10.5,10.5H179.5c-5.8,0-10.5-4.7-10.5-10.5V178.3
		C168.9,172.5,173.6,167.8,179.5,167.8z"/>
	<path d="M180.4,168.8H457c5.8,0,10.5,4.7,10.5,10.5v191.5c0,5.8-4.7,10.5-10.5,10.5H180.4c-5.8,0-10.5-4.7-10.5-10.5V179.3
		C169.9,173.5,174.6,168.8,180.4,168.8z"/>
	<path d="M181.4,169.7H458c5.8,0,10.5,4.7,10.5,10.5v191.5c0,5.8-4.7,10.5-10.5,10.5H181.4c-5.8,0-10.5-4.7-10.5-10.5V180.3
		C170.9,174.5,175.6,169.7,181.4,169.7z"/>
	<path d="M182.4,170.7h276.6c5.8,0,10.5,4.7,10.5,10.5v191.5c0,5.8-4.7,10.5-10.5,10.5H182.4c-5.8,0-10.5-4.7-10.5-10.5V181.2
		C171.8,175.4,176.6,170.7,182.4,170.7z"/>
	<path d="M183.4,171.7h276.6c5.8,0,10.5,4.7,10.5,10.5v191.5c0,5.8-4.7,10.5-10.5,10.5H183.4c-5.8,0-10.5-4.7-10.5-10.5V182.2
		C172.8,176.4,177.5,171.7,183.4,171.7z"/>
	<path d="M184.3,172.7h276.6c5.8,0,10.5,4.7,10.5,10.5v191.5c0,5.8-4.7,10.5-10.5,10.5H184.3c-5.8,0-10.5-4.7-10.5-10.5V183.2
		C173.8,177.4,178.5,172.7,184.3,172.7z"/>
	<path d="M185.3,173.6h276.6c5.8,0,10.5,4.7,10.5,10.5v191.5c0,5.8-4.7,10.5-10.5,10.5H185.3c-5.8,0-10.5-4.7-10.5-10.5V184.2
		C174.8,178.4,179.5,173.6,185.3,173.6z"/>
	<path d="M186.3,174.6h276.6c5.8,0,10.5,4.7,10.5,10.5v191.5c0,5.8-4.7,10.5-10.5,10.5H186.3c-5.8,0-10.5-4.7-10.5-10.5V185.1
		C175.7,179.3,180.5,174.6,186.3,174.6z"/>
	<path d="M187.3,175.6h276.6c5.8,0,10.5,4.7,10.5,10.5v191.5c0,5.8-4.7,10.5-10.5,10.5H187.3c-5.8,0-10.5-4.7-10.5-10.5V186.1
		C176.7,180.3,181.4,175.6,187.3,175.6z"/>
	<path d="M188.2,176.6h276.6c5.8,0,10.5,4.7,10.5,10.5v191.5c0,5.8-4.7,10.5-10.5,10.5H188.2c-5.8,0-10.5-4.7-10.5-10.5V187.1
		C177.7,181.3,182.4,176.6,188.2,176.6z"/>
	<path d="M189.2,177.5h276.6c5.8,0,10.5,4.7,10.5,10.5v191.5c0,5.8-4.7,10.5-10.5,10.5H189.2c-5.8,0-10.5-4.7-10.5-10.5V188.1
		C178.7,182.3,183.4,177.5,189.2,177.5z"/>
	<path d="M190.2,178.5h276.6c5.8,0,10.5,4.7,10.5,10.5v191.5c0,5.8-4.7,10.5-10.5,10.5H190.2c-5.8,0-10.5-4.7-10.5-10.5V189
		C179.6,183.2,184.4,178.5,190.2,178.5z"/>
	<path d="M191.2,179.5h276.6c5.8,0,10.5,4.7,10.5,10.5v191.5c0,5.8-4.7,10.5-10.5,10.5H191.2c-5.8,0-10.5-4.7-10.5-10.5V190
		C180.6,184.2,185.3,179.5,191.2,179.5z"/>
	<path d="M192.1,180.5h276.6c5.8,0,10.5,4.7,10.5,10.5v191.5c0,5.8-4.7,10.5-10.5,10.5H192.1c-5.8,0-10.5-4.7-10.5-10.5V191
		C181.6,185.2,186.3,180.5,192.1,180.5z"/>
	<path d="M193.1,181.4h276.6c5.8,0,10.5,4.7,10.5,10.5v191.5c0,5.8-4.7,10.5-10.5,10.5H193.1c-5.8,0-10.5-4.7-10.5-10.5V192
		C182.6,186.2,187.3,181.4,193.1,181.4z"/>
	<path d="M194.1,182.4h276.6c5.8,0,10.5,4.7,10.5,10.5v191.5c0,5.8-4.7,10.5-10.5,10.5H194.1c-5.8,0-10.5-4.7-10.5-10.5V192.9
		C183.5,187.1,188.3,182.4,194.1,182.4z"/>
</g>
<path fill="#CE3D3D" d="M25.4,13.7H302c5.8,0,10.5,4.7,10.5,10.5v191.5c0,5.8-4.7,10.5-10.5,10.5H25.4c-5.8,0-10.5-4.7-10.5-10.5
	V24.3C14.9,18.5,19.6,13.7,25.4,13.7z"/>
<title>tapa.123dx</title>
<desc>made with 123D Design</desc>
<polygon fill="#FFFFFF" points="281.5,77.3 281.5,77.3 281.5,77.3 281.4,77.3 281.4,77.3 281.4,77.3 281.3,77.3 281.3,77.3 
	281.3,77.3 281.2,77.3 281.2,77.3 281.2,77.3 281.1,77.3 281.1,77.3 281.1,77.3 281,77.3 281,77.3 281,77.3 280.9,77.3 280.9,77.3 
	280.9,77.3 280.8,77.2 280.8,77.2 280.8,77.2 280.7,77.2 280.7,77.2 280.7,77.1 277.3,73.7 273.9,70.3 270.5,73.8 267.1,77.2 
	267.1,77.2 267,77.2 267,77.2 267,77.3 266.9,77.3 266.9,77.3 266.9,77.3 266.8,77.3 266.8,77.3 266.8,77.4 266.7,77.4 266.7,77.4 
	266.7,77.4 266.6,77.4 266.6,77.4 266.6,77.4 266.5,77.4 266.5,77.4 266.5,77.4 266.4,77.4 266.4,77.4 266.4,77.4 266.3,77.3 
	266.3,77.3 266.3,77.3 266.2,77.3 266.2,77.3 266.2,77.3 266.1,77.2 266.1,77.2 266.1,77.2 266.1,77.2 266,77.2 266,77.1 266,77.1 
	266,77.1 265.9,77 265.9,77 265.9,77 265.9,76.9 265.9,76.9 265.9,76.9 265.9,76.8 265.9,76.8 265.9,76.8 265.9,76.7 265.8,76.7 
	265.8,76.7 265.8,76.6 265.9,76.6 265.9,76.6 265.9,76.5 265.9,76.5 265.9,76.5 265.9,76.4 265.9,76.4 265.9,76.4 265.9,76.3 
	265.9,76.3 266,76.3 266,76.2 266,76.2 266,76.2 266.1,76.2 269.7,72.5 273.4,68.8 273.4,68.8 273.5,68.8 273.5,68.8 273.5,68.7 
	273.5,68.7 273.6,68.7 273.6,68.7 273.6,68.7 273.7,68.7 273.7,68.6 273.7,68.6 273.8,68.6 273.8,68.6 273.8,68.6 273.9,68.6 
	273.9,68.6 273.9,68.6 274,68.6 274,68.6 274,68.6 274.1,68.6 274.1,68.6 274.1,68.7 274.2,68.7 274.2,68.7 274.2,68.7 274.3,68.7 
	274.3,68.7 274.3,68.8 274.4,68.8 274.4,68.8 274.4,68.8 278.1,72.5 281.7,76.1 281.7,76.1 281.8,76.2 281.8,76.2 281.8,76.2 
	281.8,76.3 281.8,76.3 281.8,76.3 281.9,76.4 281.9,76.4 281.9,76.4 281.9,76.5 281.9,76.5 281.9,76.5 281.9,76.6 281.9,76.6 
	281.9,76.6 281.9,76.7 281.9,76.7 281.9,76.7 281.9,76.8 281.9,76.8 281.9,76.8 281.9,76.9 281.9,76.9 281.8,76.9 281.8,77 
	281.8,77 281.8,77 281.8,77 281.8,77.1 281.7,77.1 281.7,77.1 281.7,77.2 281.7,77.2 281.6,77.2 281.6,77.2 281.6,77.2 "/>
<polygon fill="#FFFFFF" points="278.2,161.8 278.2,161.8 278.2,161.8 278.2,161.7 278.2,161.7 278.2,161.6 278.2,161.6 278.2,161.6 
	278.2,161.5 278.2,161.5 278.2,161.5 278.2,161.4 278.2,161.4 278.1,161.4 278.1,161.4 278.1,161.3 278.1,161.3 278.1,161.3 
	278,161.2 278,161.2 278,161.2 278,161.2 277.9,161.2 277.9,161.1 277.9,161.1 277.8,161.1 277.8,161.1 277.8,161.1 277.7,161.1 
	277.7,161.1 277.7,161 277.6,161 277.6,161 277.6,161 277.5,161 277.5,161 277.5,161 277.4,161 277.4,161 277.4,161.1 277.3,161.1 
	277.3,161.1 277.3,161.1 277.2,161.1 277.2,161.1 277.2,161.1 277.1,161.2 277.1,161.2 277.1,161.2 277,161.2 277,161.2 
	273.4,164.9 269.7,168.5 269.7,168.6 269.7,168.6 269.7,168.6 269.6,168.6 269.6,168.7 269.6,168.7 269.6,168.7 269.6,168.8 
	269.6,168.8 269.5,168.8 269.5,168.9 269.5,168.9 269.5,168.9 269.5,169 269.5,169 269.5,169 269.5,169.1 269.5,169.1 269.5,169.1 
	269.5,169.2 269.5,169.2 269.5,169.3 269.6,169.3 269.6,169.3 269.6,169.4 269.6,169.4 269.6,169.4 269.6,169.4 269.7,169.5 
	269.7,169.5 269.7,169.5 269.7,169.6 273.4,173.2 277.1,176.9 277.1,176.9 277.1,176.9 277.2,177 277.2,177 277.2,177 277.2,177 
	277.3,177 277.3,177.1 277.3,177.1 277.4,177.1 277.4,177.1 277.4,177.1 277.5,177.1 277.5,177.1 277.5,177.1 277.6,177.1 
	277.6,177.1 277.6,177.1 277.7,177.1 277.7,177.1 277.8,177.1 277.8,177.1 277.8,177.1 277.8,177.1 277.9,177 277.9,177 277.9,177 
	278,177 278,177 278,176.9 278.1,176.9 278.1,176.9 278.1,176.9 278.1,176.8 278.2,176.8 278.2,176.8 278.2,176.8 278.2,176.7 
	278.2,176.7 278.2,176.7 278.3,176.6 278.3,176.6 278.3,176.6 278.3,176.5 278.3,176.5 278.3,176.5 278.3,176.4 278.3,176.4 
	278.3,176.3 278.3,176.3 278.3,176.3 278.3,176.2 278.3,176.2 278.3,176.2 278.3,176.1 278.2,176.1 278.2,176.1 278.2,176 
	278.2,176 278.2,176 278.2,176 278.1,175.9 278.1,175.9 278.1,175.9 274.7,172.5 271.3,169 274.6,165.7 278,162.3 278.1,162.2 
	278.1,162.2 278.1,162.2 278.1,162.1 278.1,162.1 278.2,162.1 278.2,162.1 278.2,162 278.2,162 278.2,162 278.2,161.9 278.2,161.9 
	278.2,161.9 "/>
<polygon fill="#FFFFFF" points="281.8,104.9 281.8,104.8 281.8,104.8 281.8,104.8 281.8,104.7 281.9,104.7 281.9,104.7 281.9,104.6 
	281.9,104.6 281.9,104.6 281.9,104.5 281.9,104.5 281.9,104.5 281.9,104.4 281.9,104.4 281.9,104.4 281.9,104.3 281.9,104.3 
	281.9,104.3 281.9,104.2 281.9,104.2 281.9,104.2 281.8,104.1 281.8,104.1 281.8,104.1 281.8,104 281.8,104 281.8,104 281.7,103.9 
	281.7,103.9 281.7,103.9 281.7,103.9 281.6,103.9 281.6,103.8 281.6,103.8 281.5,103.8 281.5,103.8 281.5,103.8 281.4,103.8 
	281.4,103.7 281.4,103.7 281.3,103.7 281.3,103.7 281.3,103.7 281.2,103.7 281.2,103.7 281.2,103.7 281.1,103.7 281.1,103.7 
	281.1,103.7 281,103.7 281,103.7 281,103.8 280.9,103.8 280.9,103.8 280.9,103.8 280.8,103.8 280.8,103.8 280.8,103.9 280.7,103.9 
	280.7,103.9 280.7,103.9 277.3,107.3 273.9,110.8 270.5,107.4 267.1,104 267,103.9 267,103.9 267,103.9 267,103.9 266.9,103.9 
	266.9,103.8 266.9,103.8 266.8,103.8 266.8,103.8 266.8,103.8 266.7,103.8 266.7,103.8 266.7,103.8 266.6,103.8 266.6,103.8 
	266.6,103.8 266.5,103.8 266.5,103.8 266.5,103.8 266.4,103.8 266.4,103.8 266.4,103.8 266.3,103.8 266.3,103.8 266.3,103.8 
	266.2,103.8 266.2,103.9 266.2,103.9 266.1,103.9 266.1,103.9 266.1,103.9 266.1,104 266,104 266,104 266,104.1 266,104.1 
	265.9,104.1 265.9,104.1 265.9,104.2 265.9,104.2 265.9,104.2 265.9,104.3 265.9,104.3 265.9,104.3 265.9,104.4 265.9,104.4 
	265.8,104.4 265.8,104.5 265.8,104.5 265.9,104.5 265.9,104.6 265.9,104.6 265.9,104.7 265.9,104.7 265.9,104.7 265.9,104.8 
	265.9,104.8 265.9,104.8 265.9,104.8 266,104.9 266,104.9 266,104.9 266,105 266.1,105 269.7,108.6 273.4,112.3 273.4,112.3 
	273.4,112.3 273.4,112.3 273.5,112.4 273.5,112.4 273.5,112.4 273.6,112.4 273.6,112.4 273.6,112.4 273.7,112.5 273.7,112.5 
	273.7,112.5 273.8,112.5 273.8,112.5 273.8,112.5 273.9,112.5 273.9,112.5 273.9,112.5 274,112.5 274,112.5 274,112.5 274.1,112.5 
	274.1,112.4 274.1,112.4 274.2,112.4 274.2,112.4 274.2,112.4 274.3,112.4 274.3,112.3 274.3,112.3 274.3,112.3 274.4,112.3 
	278,108.6 281.7,104.9 281.7,104.9 281.8,104.9 "/>
<polygon fill="#FFFFFF" points="282.4,132.3 282.5,132 282.5,131.8 282.4,131.7 282.4,131.5 282.3,131.4 282.3,131.4 282.2,131.3 
	282.2,131.3 282.2,131.3 282,131.2 281.8,131.1 281.6,131.1 281.4,131.2 281.3,131.3 281.2,131.3 281.1,131.4 276.4,136.1 
	271.6,140.9 269.7,139 267.8,137 267.7,137 267.7,137 267.7,136.9 267.5,136.9 267.3,136.8 267.1,136.8 266.9,136.8 266.8,136.9 
	266.7,137 266.6,137 266.6,137.1 266.6,137.1 266.6,137.1 266.5,137.3 266.4,137.5 266.4,137.7 266.5,137.9 266.5,138 266.6,138.1 
	266.6,138.1 268.9,140.4 271.1,142.6 271.1,142.6 271.1,142.6 271.2,142.6 271.3,142.7 271.5,142.8 271.6,142.8 271.6,142.8 
	271.7,142.8 271.7,142.8 271.9,142.7 272.1,142.6 272.2,142.6 272.2,142.6 277.2,137.5 282.3,132.5 282.3,132.5 282.3,132.4 
	282.3,132.4 "/>
<polygon fill="#FFFFFF" points="240.5,40.7 240.5,147 240.5,182.4 240.5,182.4 135.3,182.4 86.4,182.4 44.9,182.4 44.9,93.8 
	44.9,40.7 167.2,40.7 "/>
<polygon fill="#474747" points="257.5,64.9 257.5,72.6 257.5,81.9 252.4,81.9 246.2,81.9 246.2,74.2 246.2,64.9 251.3,64.9 "/>
<polygon fill="#FFFFFF" points="257.5,160.3 257.5,168 257.5,177.3 252.4,177.3 246.2,177.3 246.2,169.6 246.2,160.3 251.3,160.3 
	"/>
<rect x="44.9" y="40.7" fill="#88D9ED" width="195.6" height="141.7"/>
<polygon fill="#FFFFFF" points="257.5,127.9 257.5,135.6 257.5,144.9 252.4,144.9 246.2,144.9 246.2,137.2 246.2,127.9 251.3,127.9 
	"/>
<polygon fill="#FFFFFF" points="257.5,97.3 257.5,105 257.5,114.3 252.4,114.3 246.2,114.3 246.2,106.6 246.2,97.3 251.3,97.3 "/>
<g>
	<path fill="#888888" d="M239.5,41.7v139.7H45.9V41.7H239.5 M240.5,40.7H44.9v141.7h195.6V40.7L240.5,40.7z"/>
</g>
<polygon fill="#FFFFFF" points="255.6,66.8 255.6,72.8 255.6,80 252.2,80 248.1,80 248.1,74 248.1,66.8 251.5,66.8 "/>
<polygon fill="#474747" points="257.5,97.3 257.5,105 257.5,114.3 252.4,114.3 246.2,114.3 246.2,106.6 246.2,97.3 251.3,97.3 "/>
<polygon fill="#FFFFFF" points="255.6,99.2 255.6,105.2 255.6,112.4 252.2,112.4 248.1,112.4 248.1,106.4 248.1,99.2 251.5,99.2 "/>
<polygon fill="#474747" points="257.5,127.9 257.5,135.6 257.5,144.9 252.4,144.9 246.2,144.9 246.2,137.2 246.2,127.9 251.3,127.9 
	"/>
<polygon fill="#FFFFFF" points="255.6,129.8 255.6,135.8 255.6,143 252.2,143 248.1,143 248.1,137 248.1,129.8 251.5,129.8 "/>
<polygon fill="#474747" points="257.5,160.3 257.5,168 257.5,177.3 252.4,177.3 246.2,177.3 246.2,169.6 246.2,160.3 251.3,160.3 
	"/>
<polygon fill="#FFFFFF" points="255.6,162.2 255.6,168.2 255.6,175.4 252.2,175.4 248.1,175.4 248.1,169.4 248.1,162.2 251.5,162.2 
	"/>
<g>
	<defs>
		<path id="SVGID_1_" d="M25.4,13.7H302c5.8,0,10.5,4.7,10.5,10.5v191.5c0,5.8-4.7,10.5-10.5,10.5H25.4c-5.8,0-10.5-4.7-10.5-10.5
			V24.3C14.9,18.5,19.6,13.7,25.4,13.7z"/>
	</defs>
	<clipPath id="SVGID_2_">
		<use xlink:href="#SVGID_1_"  overflow="visible"/>
	</clipPath>
	<polygon opacity="4.000000e-02" clip-path="url(#SVGID_2_)" points="17.1,222.3 308.6,16.1 327.4,16.1 327.4,236.2 17.1,234 	"/>
</g>
<g>
	<path fill="#609BA5" d="M158,111.3c0,14.8,0,29.7,0,44.5c0,0.5-0.1,0.9,0,1.4c0.2,1.2,1.3,2,2.6,1.9c1.2-0.1,2.1-1.1,2.2-2.4
		c0-1,0-1.9,0-2.9c0-5.6,0-11.2,0-16.7c0-5.4,0-10.9,0-16.3c0-6.3,0-12.6,0-18.9c0-6.7,0-13.4,0-20c0-1,0-1.9,0-2.9
		c0-0.2,0.1-0.4,0.3-0.5c4.1-1.7,8.1-3.3,12.2-5c0.4-0.2,0.4-0.2,0.4,0.3c0,27.4,0,54.9,0,82.3c0,3.8-1.1,7.3-3.5,10.3
		c-2.7,3.3-6.1,5.2-10.3,5.6c-6.2,0.6-12.1-2.6-15-8.1c-0.9-1.8-1.5-3.7-1.7-5.7c-0.1-1-0.1-1.9-0.1-2.9c0-29.3,0-58.6,0-87.9
		c0-0.4,0-0.7,0-1.1c0-1.1-0.9-2.1-2-2.3c-1.2-0.2-2.3,0.5-2.7,1.6c-0.1,0.3-0.1,0.6-0.1,0.9c0,5.3,0,10.7,0,16
		c0,0.3-0.1,0.5-0.4,0.6c-4,1.6-8,3.3-12.1,4.9c-0.5,0.2-0.5,0.2-0.5-0.3c0-7.1-0.1-14.2,0-21.2c0.1-6.6,3.2-11.5,9.3-14.2
		c5.8-2.5,11.3-1.5,16.1,2.6c2.7,2.3,4.3,5.4,4.9,8.9c0.2,1.2,0.3,2.4,0.3,3.6C158,82.1,158,96.7,158,111.3z"/>
	<path fill="#609BA5" d="M140.4,123.3c0,11.5,0,23.1,0,34.6c0,1-0.3,2-0.6,3c-0.2,0.5-0.3,1-0.5,1.5c-0.2,0.5-0.4,1-0.7,1.4
		c-0.5,1-1.2,1.9-1.9,2.8c-0.6,0.7-1.3,1.4-2.1,2c-0.9,0.8-1.9,1.3-2.9,1.9c-0.6,0.3-1.2,0.5-1.8,0.7c-0.8,0.3-1.7,0.4-2.6,0.7
		c-0.1,0-0.2,0-0.3,0c-1.3,0-2.7,0-4,0c-0.6,0-1.2-0.2-1.8-0.4c-0.4-0.1-0.8-0.2-1.2-0.4c-0.7-0.3-1.4-0.6-2.1-0.9
		c-0.7-0.4-1.4-0.9-2.1-1.3c-0.4-0.3-0.7-0.6-1.1-0.9c-0.7-0.6-1.3-1.3-1.9-2.1c-0.5-0.7-0.9-1.4-1.3-2.1c-0.6-1.1-1-2.2-1.3-3.4
		c-0.3-1-0.4-2.1-0.4-3.1c0-8.7,0-17.4,0-26c0-0.5,0-0.5,0.4-0.3c2.1,0.9,4.3,1.7,6.4,2.6c1.8,0.7,3.5,1.4,5.3,2.2
		c0.2,0.1,0.3,0.2,0.4,0.2c0.4,0,0.4,0.3,0.4,0.6c0,2.2,0,4.5,0,6.7c0,4.4,0,8.8,0,13.2c0,1.2,0.6,2,1.8,2.3c1,0.3,2.2-0.3,2.6-1.3
		c0.2-0.5,0.2-0.9,0.2-1.4c0.2-20.8,0-41.5,0.1-62.3c0-0.2,0-0.4,0.3-0.5c2-0.8,4-1.6,6-2.4c2-0.8,4-1.7,6-2.5
		c0.6-0.3,0.6-0.3,0.6,0.4C140.4,100.3,140.4,111.8,140.4,123.3z"/>
</g>
<path fill="#CE3D3D" d="M-82.3,133.6c0,14.8,0,29.7,0,44.5c0,0.5-0.1,0.9,0,1.4c0.2,1.2,1.3,2,2.6,1.9c1.2-0.1,2.1-1.1,2.2-2.4
	c0-1,0-1.9,0-2.9c0-5.6,0-11.2,0-16.7c0-5.4,0-10.9,0-16.3c0-6.3,0-12.6,0-18.9c0-6.7,0-13.4,0-20c0-1,0-1.9,0-2.9
	c0-0.2,0.1-0.4,0.3-0.5c4.1-1.7,8.1-3.3,12.2-5c0.4-0.2,0.4-0.2,0.4,0.3c0,27.4,0,54.9,0,82.3c0,3.8-1.1,7.3-3.5,10.3
	c-2.7,3.3-6.1,5.2-10.3,5.6c-6.2,0.6-12.1-2.6-15-8.1c-0.9-1.8-1.5-3.7-1.7-5.7c-0.1-1-0.1-1.9-0.1-2.9c0-29.3,0-58.6,0-87.9
	c0-0.4,0-0.7,0-1.1c0-1.1-0.9-2.1-2-2.3c-1.2-0.2-2.3,0.5-2.7,1.6c-0.1,0.3-0.1,0.6-0.1,0.9c0,5.3,0,10.7,0,16
	c0,0.3-0.1,0.5-0.4,0.6c-4,1.6-8,3.3-12.1,4.9c-0.5,0.2-0.5,0.2-0.5-0.3c0-7.1-0.1-14.2,0-21.2c0.1-6.6,3.2-11.5,9.3-14.2
	c5.8-2.5,11.3-1.5,16.1,2.6c2.7,2.3,4.3,5.4,4.9,8.9c0.2,1.2,0.3,2.4,0.3,3.6C-82.3,104.4-82.3,119-82.3,133.6z"/>
<polygon opacity="0.1" points="255.6,66.8 248.1,80 255.6,80 "/>
<polygon opacity="0.1" points="255.6,99.2 248.1,112.4 255.6,112.4 "/>
<polygon opacity="0.1" points="255.6,129.8 248.1,143 255.6,143 "/>
<polygon opacity="0.1" points="255.6,162.2 248.1,175.4 255.6,175.4 "/>
</svg>
