<?xml version="1.0" encoding="utf-8"?>
<!-- Generator: Adobe Illustrator 18.0.0, SVG Export Plug-In . SVG Version: 6.00 Build 0)  -->
<!DOCTYPE svg PUBLIC "-//W3C//DTD SVG 1.1//EN" "http://www.w3.org/Graphics/SVG/1.1/DTD/svg11.dtd">
<svg version="1.1" id="Layer_1" xmlns="http://www.w3.org/2000/svg" xmlns:xlink="http://www.w3.org/1999/xlink" x="0px" y="0px"
	 viewBox="0 0 1000 1000" enable-background="new 0 0 1000 1000" xml:space="preserve">
<g>
	<path fill="#CE3D3D" d="M503.619,500.256c0,2.779,0,5.557,0,8.336c0,0.087-0.011,0.175,0.005,0.261
		c0.044,0.232,0.245,0.379,0.488,0.36c0.22-0.017,0.399-0.213,0.405-0.448c0.004-0.181,0.002-0.363,0.002-0.545
		c0-1.043,0-2.086,0-3.129c0-1.021,0-2.043,0-3.064c0-1.179,0-2.357,0-3.536c0-1.251-0.002-2.502-0.002-3.754
		c0-0.179,0.003-0.358,0.002-0.537c0-0.042,0.012-0.064,0.052-0.081c0.763-0.312,1.524-0.626,2.287-0.939
		c0.073-0.03,0.073-0.029,0.073,0.057c0,2.326,0,4.652,0,6.978c0,2.837,0.006,5.673-0.003,8.51
		c-0.004,1.053-0.462,1.883-1.342,2.466c-0.516,0.342-1.097,0.498-1.712,0.437c-1.22-0.12-2.049-0.773-2.498-1.911
		c-0.086-0.219-0.123-0.451-0.159-0.683c-0.026-0.172-0.022-0.342-0.022-0.513c-0.001-5.494-0.001-10.988-0.001-16.482
		c0-0.068,0.002-0.136,0.001-0.203c-0.005-0.211-0.156-0.39-0.357-0.428c-0.21-0.039-0.416,0.069-0.501,0.261
		c-0.029,0.065-0.028,0.132-0.028,0.199c0,0.997-0.001,1.994,0.002,2.992c0,0.072-0.021,0.104-0.087,0.131
		c-0.752,0.306-1.503,0.615-2.254,0.924c-0.086,0.035-0.086,0.035-0.086-0.06c0-1.326-0.022-2.653,0.007-3.979
		c0.027-1.235,0.609-2.162,1.748-2.657c1.086-0.472,2.109-0.277,3.007,0.495c0.508,0.436,0.802,1.004,0.925,1.66
		c0.041,0.219,0.051,0.441,0.051,0.664C503.619,494.776,503.619,497.516,503.619,500.256z"/>
	<path fill="#FEFEFE" d="M500.308,502.498c0,2.161,0.002,4.323-0.003,6.484c0,0.192-0.045,0.383-0.106,0.57
		c-0.019,0.059-0.04,0.118-0.058,0.178c-0.042,0.132-0.099,0.258-0.166,0.381c-0.102,0.188-0.22,0.365-0.36,0.527
		c-0.12,0.139-0.251,0.266-0.396,0.381c-0.16,0.127-0.328,0.238-0.511,0.33c-0.123,0.062-0.251,0.108-0.378,0.158
		c-0.154,0.06-0.317,0.076-0.473,0.126c-0.015,0.005-0.034,0.002-0.05,0.002c-0.249,0-0.499,0.007-0.748-0.003
		c-0.115-0.005-0.23-0.036-0.342-0.07c-0.077-0.024-0.156-0.044-0.232-0.073c-0.135-0.051-0.265-0.11-0.394-0.177
		c-0.136-0.071-0.26-0.159-0.385-0.244c-0.072-0.049-0.14-0.106-0.203-0.167c-0.125-0.122-0.247-0.247-0.349-0.389
		c-0.092-0.127-0.175-0.259-0.252-0.396c-0.113-0.2-0.19-0.412-0.25-0.631c-0.052-0.192-0.083-0.386-0.082-0.587
		c0.004-1.626,0.002-3.253,0.002-4.88c0-0.086,0-0.086,0.078-0.055c0.399,0.162,0.797,0.325,1.196,0.487
		c0.332,0.135,0.664,0.269,0.996,0.404c0.039,0.016,0.075,0.038,0.115,0.051c0.044,0.014,0.041,0.046,0.04,0.08
		c0,0.344,0,0.687,0,1.031c0,0.905-0.003,1.81,0.002,2.716c0.001,0.233,0.111,0.379,0.332,0.44c0.195,0.054,0.42-0.054,0.494-0.251
		c0.033-0.088,0.042-0.177,0.043-0.27c0.033-3.891,0.005-7.782,0.013-11.672c0-0.055,0.018-0.078,0.066-0.097
		c0.374-0.15,0.747-0.301,1.119-0.454c0.375-0.154,0.748-0.31,1.122-0.466c0.121-0.051,0.12-0.053,0.12,0.075
		C500.308,498.19,500.308,500.344,500.308,502.498z"/>
</g>
</svg>
